<svg xmlns="http://www.w3.org/2000/svg" viewBox="0 0 500 500"><g id="freepik--background-complete--inject-112"><rect x="416.78" y="398.49" width="33.12" height="0.25" style="fill:#ebebeb"></rect><rect x="322.53" y="401.21" width="8.69" height="0.25" style="fill:#ebebeb"></rect><rect x="396.59" y="389.21" width="19.19" height="0.25" style="fill:#ebebeb"></rect><rect x="52.46" y="390.89" width="43.19" height="0.25" style="fill:#ebebeb"></rect><rect x="104.56" y="390.89" width="6.33" height="0.25" style="fill:#ebebeb"></rect><rect x="131.47" y="395.11" width="93.68" height="0.25" style="fill:#ebebeb"></rect><path d="M237,337.8H43.92a5.71,5.71,0,0,1-5.71-5.71V60.66A5.71,5.71,0,0,1,43.92,55H237a5.71,5.71,0,0,1,5.71,5.71V332.09A5.71,5.71,0,0,1,237,337.8ZM43.92,55.2a5.47,5.47,0,0,0-5.46,5.46V332.09a5.47,5.47,0,0,0,5.46,5.46H237a5.47,5.47,0,0,0,5.46-5.46V60.66A5.47,5.47,0,0,0,237,55.2Z" style="fill:#ebebeb"></path><path d="M453.31,337.8H260.21a5.72,5.72,0,0,1-5.71-5.71V60.66A5.72,5.72,0,0,1,260.21,55h193.1A5.71,5.71,0,0,1,459,60.66V332.09A5.71,5.71,0,0,1,453.31,337.8ZM260.21,55.2a5.47,5.47,0,0,0-5.46,5.46V332.09a5.47,5.47,0,0,0,5.46,5.46h193.1a5.47,5.47,0,0,0,5.46-5.46V60.66a5.47,5.47,0,0,0-5.46-5.46Z" style="fill:#ebebeb"></path><rect y="382.4" width="500" height="0.25" style="fill:#ebebeb"></rect><polygon points="306.72 382.65 193.28 382.65 213.69 335.54 286.31 335.54 306.72 382.65" style="fill:#f0f0f0"></polygon><polygon points="291.16 377.18 208.91 377.05 220.15 339.2 279.85 339.2 291.16 377.18" style="fill:#e0e0e0"></polygon><path d="M297.81,113.39l32.88-1.91a5.91,5.91,0,0,1,3.34.79h0c10.86,9.41,22.58,3.13,27.75-.58a12.68,12.68,0,0,1,6.7-2.41l36.64-2.14c13.74-.8,15.94-20.24,2.69-24L407.3,83C421,70.2,388,46.81,355.79,83.73c2-11.8-28.19-5.82-36.57,10.61C315.31,84.1,287.35,103.92,297.81,113.39Z" style="fill:#f0f0f0"></path><path d="M85.43,143.29,106,142.9l1.71.72a33.72,33.72,0,0,0,29.13-1.31h0L154,142s16-6.37,13.57-22.37-26.4-2.16-26.4-2.16,6.93-22.52-16.46-15.72-25.24,29-25.24,29S68.48,126,85.43,143.29Z" style="fill:#f0f0f0"></path><path d="M271.42,151.68h56.16c7.19,0,8.93-10.07,2.13-12.44l-.26-.08c7.52-6.27-9-19.47-26.88-1.19,1.39-6.09-14.53-3.89-19.4,4.42C281.44,136.93,266.26,146.42,271.42,151.68Z" style="fill:#f0f0f0"></path><path d="M207.41,104.22a9.93,9.93,0,0,1-1.61-.52c-1-.38-2.22-1-3.52-1.65a10.66,10.66,0,0,0-3.44-1c-.91-.1-1.53,0-1.62-.24s.45-.68,1.57-.89a7,7,0,0,1,4.18.72,12.49,12.49,0,0,1,3.26,2.41C207,103.74,207.41,104.22,207.41,104.22Z" style="fill:#e6e6e6"></path><path d="M213.06,99.67l-1.16.45c-.7.28-1.57.68-2.55,1.11-1.94.86-3.6,1.75-3.88,1.36-.12-.17.14-.61.69-1.15a8.71,8.71,0,0,1,2.56-1.68,5.75,5.75,0,0,1,3.09-.43,6,6,0,0,1,.93.21Z" style="fill:#e6e6e6"></path><path d="M196.91,107.62l-.32-.2c-.2-.13-.49-.3-.85-.49a19.13,19.13,0,0,0-2.86-1.24c-2.26-.81-4.29-.64-4.35-1,0-.15.46-.41,1.34-.54a7.71,7.71,0,0,1,3.41.38,6.71,6.71,0,0,1,2.83,1.91,6.24,6.24,0,0,1,.62.83C196.85,107.5,196.91,107.62,196.91,107.62Z" style="fill:#e6e6e6"></path><path d="M199.14,102.93l-.82.47-1.81,1c-1.37.75-2.42,1.63-2.68,1.39s0-.47.35-.94a5.42,5.42,0,0,1,1.76-1.5,4.63,4.63,0,0,1,2.24-.55A3.93,3.93,0,0,1,199.14,102.93Z" style="fill:#e6e6e6"></path><path d="M195,100.26s-.77-.27-1.95-.76-2.75-1.2-4.48-1.77a12.35,12.35,0,0,0-4.55-.63c-1.18.07-1.94.3-2.05.08s.52-.8,1.85-1.19a9,9,0,0,1,5.25.22,13.29,13.29,0,0,1,4.4,2.6A20.42,20.42,0,0,1,195,100.26Z" style="fill:#e6e6e6"></path><path d="M200.24,93.65l-.43.12c-.28.07-.68.19-1.15.34a33.62,33.62,0,0,0-3.49,1.37c-2.63,1.18-4.33,2.93-4.7,2.65-.16-.13.06-.77.73-1.61A9.21,9.21,0,0,1,194.5,94a8.3,8.3,0,0,1,4.07-.72,7.11,7.11,0,0,1,1.23.21Z" style="fill:#e6e6e6"></path></g><g id="freepik--Shadow--inject-112"><path id="freepik--path--inject-112" d="M443.89,412.39c.05,6.25-86.32,11.32-193.89,11.32-107.08,0-193.89-5.07-193.89-11.32S142.92,401.07,250,401.07,443.84,406.14,443.89,412.39Z" style="fill:#f5f5f5"></path></g><g id="freepik--taj-mahal--inject-112"><path d="M341.44,198.19v16.75h2.1V198.19Z" style="fill:#407BFF"></path><rect x="341.04" y="195.84" width="2.89" height="2.89" style="fill:#407BFF"></rect><path d="M341,195.84l.63-.72a1.09,1.09,0,0,1,1.65,0l.62.72Z" style="fill:#407BFF"></path><rect x="340.09" y="195.84" width="5" height="0.7" style="fill:#407BFF"></rect><rect x="342.39" y="191.27" width="0.2" height="4.49" style="fill:#407BFF"></rect><path d="M345.09,195.84h-1.15l-.62-.72a1.08,1.08,0,0,0-.73-.35v-3.5h-.2v3.5a1,1,0,0,0-.72.35l-.63.72h-1v.7h1v2.19h.4v16.21h2.1V198.73h.4v-2.19h1.15Z" style="opacity:0.2"></path><rect x="336.91" y="201.08" width="8.28" height="13.97" transform="translate(682.09 416.13) rotate(180)" style="fill:#407BFF"></rect><rect x="336.91" y="201.08" width="8.28" height="13.97" transform="translate(682.09 416.13) rotate(180)" style="opacity:0.2"></rect><rect x="339.85" y="201.08" width="8.28" height="13.97" transform="translate(687.97 416.13) rotate(180)" style="fill:#407BFF"></rect><path d="M342.79,215.05h2.39v-4c0-1.31-.17-1.38-.47-1.56L344,209s-.25.13-.73.41c-.3.18-.51.25-.47,1.56Z" style="opacity:0.2"></path><path d="M347.27,191.67v23.38h2.88V191.67Z" style="fill:#407BFF"></path><rect x="346.74" y="188.46" width="3.96" height="3.96" style="fill:#407BFF"></rect><path d="M346.74,188.46l.85-1a1.51,1.51,0,0,1,2.26,0l.85,1Z" style="fill:#407BFF"></path><rect x="345.44" y="188.46" width="6.84" height="0.96" style="fill:#407BFF"></rect><rect x="348.58" y="182.21" width="0.27" height="6.15" style="fill:#407BFF"></rect><rect x="337.93" y="204.44" width="12.11" height="1.38" transform="translate(687.97 410.26) rotate(180)" style="fill:#407BFF"></rect><rect x="337.93" y="204.44" width="12.11" height="1.38" transform="translate(687.97 410.26) rotate(180)" style="fill:#fff;opacity:0.1"></rect><rect x="326.61" y="214.26" width="25.91" height="81.31" transform="translate(679.13 509.84) rotate(180)" style="fill:#407BFF"></rect><rect x="326.61" y="214.26" width="25.91" height="81.31" transform="translate(679.13 509.84) rotate(180)" style="fill:#fff;opacity:0.30000000000000004"></rect><path d="M293.45,195.6l.33.7H322.5l.33-.7c2.19-4.53,1.86-11.48-4.3-14.92a49.75,49.75,0,0,1-10.15-7.46h-.48a49.75,49.75,0,0,1-10.15,7.46C291.59,184.12,291.26,191.07,293.45,195.6Z" style="fill:#407BFF"></path><path d="M293.45,195.6l.33.7H322.5l.33-.7c2.19-4.53,1.86-11.48-4.3-14.92a49.75,49.75,0,0,1-10.15-7.46h-.48a49.75,49.75,0,0,1-10.15,7.46C291.59,184.12,291.26,191.07,293.45,195.6Z" style="fill:#fff;opacity:0.2"></path><path d="M307.14,173.54h2l-.75-.93a.35.35,0,0,0-.55,0Z" style="fill:#407BFF"></path><rect x="308.05" y="165.12" width="0.24" height="7.47" style="fill:#407BFF"></rect><path d="M308.8,171.57a.59.59,0,0,1-.62.55.58.58,0,0,1-.61-.55.58.58,0,0,1,.61-.54A.58.58,0,0,1,308.8,171.57Z" style="fill:#407BFF"></path><path d="M308.8,167.87a.58.58,0,0,1-.62.54.58.58,0,0,1-.61-.54.58.58,0,0,1,.61-.55A.59.59,0,0,1,308.8,167.87Z" style="fill:#407BFF"></path><path d="M309,170a.85.85,0,1,1-.84-.94A.9.9,0,0,1,309,170Z" style="fill:#407BFF"></path><path d="M308.2,167.06h-.09a1.38,1.38,0,0,1-1.15-.89l-.07-.2.95-.33.07.2a.31.31,0,0,0,.27.22.4.4,0,0,0,.2-.22l.06-.2.95.33-.07.2a1.34,1.34,0,0,1-1.08.88Z" style="fill:#407BFF"></path><rect x="300.82" y="177.73" width="14.79" height="1.09" transform="translate(616.42 356.55) rotate(180)" style="fill:#407BFF"></rect><rect x="300.82" y="177.73" width="14.79" height="1.09" transform="translate(616.42 356.55) rotate(180)" style="opacity:0.1"></rect><polygon points="288.46 198.75 308.29 198.71 328.11 198.75 322.5 196.31 294.08 196.31 288.46 198.75" style="fill:#407BFF"></polygon><polygon points="288.46 198.75 308.29 198.71 328.11 198.75 322.5 196.31 294.08 196.31 288.46 198.75" style="fill:#fff;opacity:0.30000000000000004"></polygon><rect x="293.64" y="198.71" width="29.59" height="17.73" transform="translate(616.87 415.15) rotate(180)" style="fill:#407BFF"></rect><path d="M304.14,216.44h8.73l0-6.15c.17-4.16-.62-5.27-1.71-5.83-1.75-.9-2.64-1.32-2.64-1.32s-.87.42-2.63,1.32c-1.09.56-1.88,1.67-1.71,5.83Z" style="opacity:0.2"></path><path d="M294.72,216.44h7.45v-6.15c.14-4.16-.54-5.27-1.46-5.83-1.5-.9-2.25-1.32-2.25-1.32s-.75.42-2.24,1.32c-.93.56-1.61,1.67-1.47,5.83Z" style="opacity:0.2"></path><path d="M314.84,216.44h7.44v-6.15c.14-4.16-.54-5.27-1.46-5.83-1.5-.9-2.25-1.32-2.25-1.32s-.75.42-2.24,1.32c-.93.56-1.61,1.67-1.47,5.83Z" style="opacity:0.2"></path><rect x="312.87" y="198.71" width="1.96" height="17.73" transform="translate(627.71 415.15) rotate(180)" style="fill:#fff;opacity:0.2"></rect><rect x="307.53" y="184.81" width="1.91" height="29.71" transform="translate(108.83 508.16) rotate(-90)" style="fill:#fff;opacity:0.1"></rect><rect x="302.17" y="198.71" width="1.96" height="17.73" transform="translate(606.31 415.15) rotate(180)" style="fill:#fff;opacity:0.2"></rect><rect x="289.55" y="214.26" width="37.06" height="81.31" transform="translate(616.17 509.84) rotate(180)" style="fill:#407BFF"></rect><rect x="289.55" y="214.26" width="37.06" height="81.31" transform="translate(616.17 509.84) rotate(180)" style="fill:#fff;opacity:0.2"></rect><path d="M299.25,293.94h19.8L319,282.42c.38-10.77-1.42-11.68-3.88-13.12-4-2.34-6-3.41-6-3.41s-2,1.07-6,3.41c-2.47,1.44-4.26,2.35-3.89,13.12Z" style="fill:#407BFF"></path><rect x="306.59" y="285.19" width="5.12" height="8.75" transform="translate(618.3 579.12) rotate(180)" style="opacity:0.30000000000000004"></rect><path d="M299.25,257.69h19.8L319,243.82c.38-10.77-1.42-11.41-3.88-12.86-4-2.34-6-3.41-6-3.41s-2,1.07-6,3.41c-2.47,1.45-4.26,2.09-3.89,12.86Z" style="fill:#407BFF"></path><rect x="306.59" y="248.94" width="5.12" height="8.75" transform="translate(618.3 506.62) rotate(180)" style="opacity:0.30000000000000004"></rect><path d="M326.75,294h-7.59v-6.31h7.59Zm-6.59-1h5.59v-4.31h-5.59Z" style="opacity:0.2"></path><path d="M350.26,294h-3.75v-6.31h3.75Zm-2.75-1h1.75v-4.31h-1.75Z" style="opacity:0.2"></path><path d="M333.6,294h-3.75v-6.31h3.75Zm-2.75-1h1.75v-4.31h-1.75Z" style="opacity:0.2"></path><path d="M333.54,294.15h13.1l0-12.45c.29-10.82-1.4-10.74-2.81-12.23-3.17-3.35-4.07-3.32-4.07-3.32s-1.3.52-3.81,3.25c-1.49,1.63-2.56,2.43-2.34,12Z" style="fill:#407BFF"></path><path d="M319.11,294h-7.26v-6.31h7.26Zm-6.26-1h5.26v-4.31h-5.26Z" style="opacity:0.2"></path><path d="M306.69,294h-7.26v-6.31h7.26Zm-6.26-1h5.26v-4.31h-5.26Z" style="opacity:0.2"></path><path d="M346.7,294H333.79v-6.31H346.7Zm-11.91-1H345.7v-4.31H334.79Z" style="opacity:0.2"></path><path d="M329.69,202.62V294h-2.88V202.62Z" style="fill:#407BFF"></path><rect x="326.26" y="199.41" width="3.96" height="3.96" transform="translate(656.48 402.78) rotate(180)" style="fill:#407BFF"></rect><path d="M330.22,199.41l-.85-1a1.49,1.49,0,0,0-2.26,0l-.85,1Z" style="fill:#407BFF"></path><rect x="324.69" y="199.41" width="6.84" height="0.96" transform="translate(656.21 399.78) rotate(180)" style="fill:#407BFF"></rect><rect x="328.11" y="193.16" width="0.27" height="6.15" transform="translate(656.48 392.46) rotate(180)" style="fill:#407BFF"></rect><path d="M353.09,204.72V294h-2.88V204.72Z" style="fill:#407BFF"></path><rect x="349.66" y="201.51" width="3.96" height="3.96" transform="translate(703.28 406.99) rotate(180)" style="fill:#407BFF"></rect><path d="M353.62,201.51l-.85-1a1.49,1.49,0,0,0-2.26,0l-.85,1Z" style="fill:#407BFF"></path><rect x="348.09" y="201.51" width="6.84" height="0.96" transform="translate(703.01 403.99) rotate(180)" style="fill:#407BFF"></rect><rect x="351.51" y="195.26" width="0.27" height="6.15" transform="translate(703.28 396.67) rotate(180)" style="fill:#407BFF"></rect><path d="M348.09,201.51h1.57l.85-1a1.52,1.52,0,0,1,1-.51v-4.77h.27V200a1.52,1.52,0,0,1,1,.51l.85,1h1.3v1h-1.3v3h-.53V294h-2.88V205.47h-.55v-3h-1.57Z" style="fill:#fff;opacity:0.2"></path><path d="M333,257.73h13.09l0-13.26c.28-10.82-1.4-10.74-2.82-12.23-3.17-3.35-4.07-3.32-4.07-3.32s-1.3.52-3.8,3.25c-1.5,1.63-2.57,2.43-2.34,12Z" style="fill:#407BFF"></path><path d="M264.52,113.45a81.27,81.27,0,0,0-13.52-1.1h-2.54a81.34,81.34,0,0,0-13.54,1.1,156.49,156.49,0,0,0,12.44-13h4.73A159.18,159.18,0,0,0,264.52,113.45Z" style="fill:#407BFF"></path><path d="M264.52,113.45a81.27,81.27,0,0,0-13.52-1.1h-2.54a81.34,81.34,0,0,0-13.54,1.1,156.49,156.49,0,0,0,12.44-13h4.73A159.18,159.18,0,0,0,264.52,113.45Z" style="fill:#fff;opacity:0.30000000000000004"></path><rect x="209.19" y="186.37" width="82.28" height="9.81" style="fill:#407BFF"></rect><rect x="209.19" y="186.37" width="82.28" height="9.81" style="opacity:0.2"></rect><path d="M293.14,182.64l-1,2.64H207.27l-1-2.64c-6.48-17-5.52-43.18,12.71-56.13,4.13-2.93,7.93-6,11.33-8.93,0,0,0,0,0,0,.28-.22.54-.45.79-.69h0c1.51-.91,5.73-2.37,17.29-2.47H251c11.49.1,15.73,1.54,17.26,2.45.27.26.54.5.83.73h0a143.29,143.29,0,0,0,11.32,8.93C298.66,139.46,299.62,165.61,293.14,182.64Z" style="fill:#407BFF"></path><path d="M293.15,182.64l-1,2.64H207.27l-1-2.64c-6.48-17-5.53-43.18,12.7-56.13,4.13-2.93,7.94-6,11.34-8.93,0,0,0,0,0,0,.27-.22.54-.45.79-.69h0c1.5-.91,5.72-2.37,17.29-2.47H251c11.5.1,15.74,1.54,17.26,2.45.28.26.55.5.83.73h0a143.51,143.51,0,0,0,11.33,8.93C298.67,139.46,299.63,165.61,293.15,182.64Z" style="fill:#fff;opacity:0.2"></path><rect x="204.57" y="177.16" width="90.31" height="9.81" style="fill:#407BFF"></rect><rect x="204.57" y="177.16" width="90.31" height="9.81" style="opacity:0.1"></rect><rect x="207.65" y="195.26" width="85.27" height="100.38" style="fill:#407BFF"></rect><rect x="207.65" y="195.26" width="85.27" height="100.38" style="fill:#fff;opacity:0.1"></rect><path d="M289.89,184.54V294h2.88V184.54Z" style="fill:#407BFF"></path><rect x="289.36" y="181.33" width="3.96" height="3.96" style="fill:#407BFF"></rect><path d="M289.36,181.33l.85-1a1.48,1.48,0,0,1,2.25,0l.85,1Z" style="fill:#407BFF"></path><rect x="288.05" y="181.33" width="6.84" height="0.96" style="fill:#407BFF"></rect><rect x="291.2" y="175.08" width="0.27" height="6.15" style="fill:#407BFF"></rect><path d="M231.43,117.29l-.59-.8c1.5-1.33,2.68-2.41,3.73-3.4l.11-.1.15,0a82.2,82.2,0,0,1,13.63-1.11H251A82,82,0,0,1,264.61,113l.15,0,.11.1c1.13,1.07,2.35,2.17,3.73,3.38l-.59.8c-1.42-.84-5.52-2.28-17-2.38h-2.54C236.93,115,232.84,116.44,231.43,117.29Zm3.72-3.37-1.57,1.46c2.59-.73,7.1-1.42,14.88-1.49H251c7.61.07,12.14.71,14.83,1.46l-1.55-1.43a81,81,0,0,0-13.3-1.07h-2.53A81.12,81.12,0,0,0,235.15,113.92Z" style="fill:#407BFF"></path><path d="M271.11,115.46l-2,2.12h0a2.11,2.11,0,0,0-.83-.73c-1.53-.91-5.77-2.35-17.26-2.45h-2.55c-11.56.1-15.78,1.56-17.29,2.47h0a2.37,2.37,0,0,0-.79.69s0,0,0,0l-2-2.12s1.66-1.11,6.57-2a81.34,81.34,0,0,1,13.54-1.1H251a81.27,81.27,0,0,1,13.52,1.1C269.44,114.35,271.11,115.46,271.11,115.46Z" style="fill:#407BFF"></path><path d="M253.56,100.45h-7.68L248.69,97a1.17,1.17,0,0,1,.36-.31,1.3,1.3,0,0,1,1.7.31Z" style="fill:#407BFF"></path><path d="M247.34,93a2.33,2.33,0,1,0,2.32-2A2.2,2.2,0,0,0,247.34,93Z" style="fill:#407BFF"></path><path d="M247.34,79A2.33,2.33,0,1,0,249.66,77,2.2,2.2,0,0,0,247.34,79Z" style="fill:#407BFF"></path><path d="M246.55,87.06a3.17,3.17,0,1,0,3.15-3.53A3.36,3.36,0,0,0,246.55,87.06Z" style="fill:#407BFF"></path><path d="M249.7,74.58a3.67,3.67,0,0,1-3-2.42l-.26-.74.94-.33.26.74a2.69,2.69,0,0,0,2.15,1.76h.15A2.65,2.65,0,0,0,252,71.83l.26-.74.94.33-.26.74A3.66,3.66,0,0,1,250,74.58Z" style="fill:#407BFF"></path><rect x="249.25" y="68.69" width="1" height="30.76" style="fill:#407BFF"></rect><path d="M253.56,100.45h-7.68L248.69,97a1.17,1.17,0,0,1,.36-.31,1.3,1.3,0,0,1,1.7.31Z" style="fill:#407BFF"></path><path d="M247.34,93a2.33,2.33,0,1,0,2.32-2A2.2,2.2,0,0,0,247.34,93Z" style="fill:#407BFF"></path><path d="M247.34,79A2.33,2.33,0,1,0,249.66,77,2.2,2.2,0,0,0,247.34,79Z" style="fill:#407BFF"></path><path d="M246.55,87.06a3.17,3.17,0,1,0,3.15-3.53A3.36,3.36,0,0,0,246.55,87.06Z" style="fill:#407BFF"></path><path d="M249.7,74.58a3.67,3.67,0,0,1-3-2.42l-.26-.74.94-.33.26.74a2.69,2.69,0,0,0,2.15,1.76h.15A2.65,2.65,0,0,0,252,71.83l.26-.74.94.33-.26.74A3.66,3.66,0,0,1,250,74.58Z" style="fill:#407BFF"></path><rect x="249.25" y="68.69" width="1" height="30.76" style="fill:#407BFF"></rect><rect x="225.84" y="217.52" width="49.47" height="76.43" style="opacity:0.30000000000000004"></rect><path d="M273.49,294h-46l.11-32.2c-.88-25,3.3-26.51,9-29.87,9.22-5.42,13.86-7.92,13.86-7.92s4.62,2.5,13.85,7.92c5.72,3.36,9.89,4.85,9,29.87Z" style="fill:#407BFF"></path><path d="M257,257.7H244.68l0-5.41c-.23-6.69.89-7.09,2.41-8,2.47-1.45,3.71-2.12,3.71-2.12s1.24.67,3.7,2.12c1.53.89,2.65,1.29,2.41,8Z" style="opacity:0.30000000000000004"></path><path d="M257,294H244.68l0-11.27c-.23-6.69.89-7.09,2.41-8,2.47-1.45,3.71-2.11,3.71-2.11s1.24.66,3.7,2.11c1.53.9,2.65,1.3,2.41,8Z" style="opacity:0.30000000000000004"></path><polygon points="250.48 206.84 214.54 206.75 214.54 285.28 220.84 285.28 220.84 213.22 280.13 213.22 280.13 285.28 286.43 285.28 286.43 206.75 250.48 206.84" style="opacity:0.30000000000000004"></polygon><path d="M212.16,294.05v-6.31l13.71-.11v6.31Zm1-5.32V293l11.71-.09v-4.31Z" style="opacity:0.2"></path><path d="M275.42,294.05v-6.31l13.71-.11v6.31Zm1-5.32V293l11.71-.09v-4.31Z" style="opacity:0.2"></path><path d="M208.35,294h-6.63v-6.31h6.63Zm-5.63-1h4.63v-4.31h-4.63Z" style="opacity:0.2"></path><path d="M159,198.19v16.75h-2.11V198.19Z" style="fill:#407BFF"></path><rect x="156.46" y="195.84" width="2.89" height="2.89" transform="translate(315.8 394.57) rotate(180)" style="fill:#407BFF"></rect><path d="M159.35,195.84l-.62-.72a1.09,1.09,0,0,0-1.65,0l-.62.72Z" style="fill:#407BFF"></path><rect x="155.3" y="195.84" width="5" height="0.7" transform="translate(315.61 392.38) rotate(180)" style="fill:#407BFF"></rect><rect x="157.8" y="191.27" width="0.2" height="4.49" transform="translate(315.8 387.03) rotate(180)" style="fill:#407BFF"></rect><path d="M155.3,195.84h1.16l.62-.72a1,1,0,0,1,.72-.35v-3.5h.2v3.5a1.08,1.08,0,0,1,.73.35l.62.72h1v.7h-1v2.19H159v16.21h-2.11V198.73h-.39v-2.19H155.3Z" style="opacity:0.2"></path><rect x="155.21" y="201.08" width="8.28" height="13.97" style="fill:#407BFF"></rect><rect x="155.21" y="201.08" width="8.28" height="13.97" style="opacity:0.2"></rect><rect x="152.27" y="201.08" width="8.28" height="13.97" style="fill:#407BFF"></rect><path d="M157.61,215.05h-2.4v-4c-.05-1.31.17-1.38.47-1.56l.72-.41.72.41c.3.18.52.25.47,1.56Z" style="opacity:0.2"></path><path d="M153.12,191.67v23.38h-2.88V191.67Z" style="fill:#407BFF"></path><rect x="149.7" y="188.46" width="3.96" height="3.96" transform="translate(303.35 380.89) rotate(180)" style="fill:#407BFF"></rect><path d="M153.66,188.46l-.86-1a1.5,1.5,0,0,0-2.25,0l-.85,1Z" style="fill:#407BFF"></path><rect x="148.12" y="188.46" width="6.84" height="0.96" transform="translate(303.08 377.89) rotate(180)" style="fill:#407BFF"></rect><rect x="151.54" y="182.21" width="0.27" height="6.15" transform="translate(303.35 370.57) rotate(180)" style="fill:#407BFF"></rect><rect x="150.35" y="204.44" width="12.11" height="1.38" style="fill:#407BFF"></rect><rect x="150.35" y="204.44" width="12.11" height="1.38" style="fill:#fff;opacity:0.1"></rect><rect x="147.88" y="214.26" width="25.91" height="81.31" style="fill:#407BFF"></rect><rect x="147.88" y="214.26" width="25.91" height="81.31" style="fill:#fff;opacity:0.30000000000000004"></rect><path d="M206.94,195.6l-.32.7H177.89l-.32-.7c-2.19-4.53-1.87-11.48,4.3-14.92A49.85,49.85,0,0,0,192,173.22h.49a49.85,49.85,0,0,0,10.14,7.46C208.81,184.12,209.13,191.07,206.94,195.6Z" style="fill:#407BFF"></path><path d="M206.94,195.6l-.32.7H177.89l-.32-.7c-2.19-4.53-1.87-11.48,4.3-14.92A49.85,49.85,0,0,0,192,173.22h.49a49.85,49.85,0,0,0,10.14,7.46C208.81,184.12,209.13,191.07,206.94,195.6Z" style="fill:#fff;opacity:0.2"></path><path d="M193.26,173.54h-2l.74-.93a.35.35,0,0,1,.55,0Z" style="fill:#407BFF"></path><rect x="192.11" y="165.12" width="0.24" height="7.47" style="fill:#407BFF"></rect><path d="M191.6,171.57a.58.58,0,0,0,.61.55.59.59,0,0,0,.62-.55.58.58,0,0,0-.62-.54A.58.58,0,0,0,191.6,171.57Z" style="fill:#407BFF"></path><path d="M191.6,167.87a.58.58,0,0,0,.61.54.58.58,0,0,0,.62-.54.59.59,0,0,0-.62-.55A.58.58,0,0,0,191.6,167.87Z" style="fill:#407BFF"></path><path d="M191.39,170a.84.84,0,1,0,.84-.94A.89.89,0,0,0,191.39,170Z" style="fill:#407BFF"></path><path d="M192.32,167.06h-.09a1.36,1.36,0,0,1-1.15-.89L191,166l.94-.33.07.2a.32.32,0,0,0,.28.22.39.39,0,0,0,.19-.22l.07-.2.94.33-.07.2a1.33,1.33,0,0,1-1.08.88Z" style="fill:#407BFF"></path><rect x="184.79" y="177.73" width="14.79" height="1.09" style="fill:#407BFF"></rect><rect x="184.79" y="177.73" width="14.79" height="1.09" style="opacity:0.1"></rect><polygon points="211.93 198.75 192.1 198.71 172.29 198.75 177.89 196.31 206.32 196.31 211.93 198.75" style="fill:#407BFF"></polygon><polygon points="211.93 198.75 192.1 198.71 172.29 198.75 177.89 196.31 206.32 196.31 211.93 198.75" style="fill:#fff;opacity:0.30000000000000004"></polygon><rect x="177.16" y="198.71" width="29.59" height="17.73" style="fill:#407BFF"></rect><path d="M196.26,216.44h-8.74l0-6.15c-.17-4.16.63-5.27,1.71-5.83,1.76-.9,2.64-1.32,2.64-1.32s.88.42,2.63,1.32c1.09.56,1.88,1.67,1.72,5.83Z" style="opacity:0.2"></path><path d="M205.67,216.44h-7.45l0-6.15c-.14-4.16.53-5.27,1.46-5.83,1.49-.9,2.24-1.32,2.24-1.32s.75.42,2.25,1.32c.93.56,1.6,1.67,1.46,5.83Z" style="opacity:0.2"></path><path d="M185.56,216.44h-7.45l0-6.15c-.14-4.16.53-5.27,1.46-5.83,1.49-.9,2.24-1.32,2.24-1.32s.75.42,2.25,1.32c.93.56,1.6,1.67,1.46,5.83Z" style="opacity:0.2"></path><rect x="185.56" y="198.71" width="1.96" height="17.73" style="fill:#fff;opacity:0.2"></rect><rect x="190.95" y="184.81" width="1.91" height="29.71" transform="translate(-7.76 391.57) rotate(-90)" style="fill:#fff;opacity:0.1"></rect><rect x="196.26" y="198.71" width="1.96" height="17.73" style="fill:#fff;opacity:0.2"></rect><rect x="173.78" y="214.26" width="37.06" height="81.31" style="fill:#407BFF"></rect><rect x="173.78" y="214.26" width="37.06" height="81.31" style="fill:#fff;opacity:0.2"></rect><path d="M201.14,293.94H181.35l.05-11.52c-.38-10.77,1.42-11.68,3.88-13.12,4-2.34,6-3.41,6-3.41s2,1.07,6,3.41c2.46,1.44,4.26,2.35,3.88,13.12Z" style="fill:#407BFF"></path><rect x="188.68" y="285.19" width="5.12" height="8.75" style="opacity:0.30000000000000004"></rect><path d="M201.14,257.69H181.35l.05-13.87c-.38-10.77,1.42-11.41,3.88-12.86,4-2.34,6-3.41,6-3.41s2,1.07,6,3.41c2.46,1.45,4.26,2.09,3.88,12.86Z" style="fill:#407BFF"></path><rect x="188.68" y="248.94" width="5.12" height="8.75" style="opacity:0.30000000000000004"></rect><path d="M181.24,294h-7.59v-6.31h7.59Zm-6.59-1h5.59v-4.31h-5.59Z" style="opacity:0.2"></path><path d="M153.89,294h-3.76v-6.31h3.76Zm-2.76-1h1.76v-4.31h-1.76Z" style="opacity:0.2"></path><path d="M170.55,294h-3.76v-6.31h3.76Zm-2.76-1h1.76v-4.31h-1.76Z" style="opacity:0.2"></path><path d="M166.85,294.15h-13.1l0-12.45c-.28-10.82,1.4-10.74,2.81-12.23,3.17-3.35,4.08-3.32,4.08-3.32s1.3.52,3.8,3.25c1.5,1.63,2.56,2.43,2.34,12Z" style="fill:#407BFF"></path><path d="M188.55,294h-7.27v-6.31h7.27Zm-6.27-1h5.27v-4.31h-5.27Z" style="opacity:0.2"></path><path d="M201,294H193.7v-6.31H201Zm-6.27-1H200v-4.31H194.7Z" style="opacity:0.2"></path><path d="M166.61,294H153.69v-6.31h12.92Zm-11.92-1h10.92v-4.31H154.69Z" style="opacity:0.2"></path><path d="M170.71,202.62V294h2.88V202.62Z" style="fill:#407BFF"></path><rect x="170.17" y="199.41" width="3.96" height="3.96" style="fill:#407BFF"></rect><path d="M170.17,199.41l.86-1a1.48,1.48,0,0,1,2.25,0l.85,1Z" style="fill:#407BFF"></path><rect x="168.87" y="199.41" width="6.84" height="0.96" style="fill:#407BFF"></rect><rect x="172.02" y="193.16" width="0.27" height="6.15" style="fill:#407BFF"></rect><path d="M147.31,204.72V294h2.88V204.72Z" style="fill:#407BFF"></path><rect x="146.78" y="201.51" width="3.96" height="3.96" style="fill:#407BFF"></rect><path d="M146.78,201.51l.85-1a1.48,1.48,0,0,1,2.25,0l.85,1Z" style="fill:#407BFF"></path><rect x="145.47" y="201.51" width="6.84" height="0.96" style="fill:#407BFF"></rect><rect x="148.62" y="195.26" width="0.27" height="6.15" style="fill:#407BFF"></rect><path d="M152.31,201.51h-1.58l-.85-1a1.48,1.48,0,0,0-1-.51v-4.77h-.27V200a1.48,1.48,0,0,0-1,.51l-.85,1h-1.31v1h1.31v3h.53V294h2.88V205.47h.54v-3h1.58Z" style="fill:#fff;opacity:0.2"></path><path d="M167.38,257.73h-13.1l0-13.26c-.28-10.82,1.4-10.74,2.81-12.23,3.17-3.35,4.08-3.32,4.08-3.32s1.29.52,3.8,3.25c1.49,1.63,2.56,2.43,2.34,12Z" style="fill:#407BFF"></path><path d="M250.33,112.34h0Z" style="fill:#407BFF"></path><path d="M251.6,112.35h0Z" style="fill:#407BFF"></path><path d="M207.88,184.54V294h2.88V184.54Z" style="fill:#407BFF"></path><rect x="207.35" y="181.33" width="3.96" height="3.96" style="fill:#407BFF"></rect><path d="M207.35,181.33l.85-1a1.49,1.49,0,0,1,2.26,0l.85,1Z" style="fill:#407BFF"></path><rect x="206.05" y="181.33" width="6.84" height="0.96" style="fill:#407BFF"></rect><rect x="209.19" y="175.08" width="0.27" height="6.15" style="fill:#407BFF"></rect><rect x="107.5" y="190.41" width="11.16" height="4.28" style="fill:#407BFF"></rect><rect x="107.5" y="198.88" width="11.16" height="1.36" style="fill:#407BFF"></rect><rect x="107.66" y="194.26" width="10.83" height="4.61" style="fill:#407BFF"></rect><g style="opacity:0.2"><rect x="107.66" y="194.26" width="10.83" height="4.61"></rect></g><path d="M108.21,198.88v-4.11a3.47,3.47,0,0,1,.35-1.58c.24-.48.61-.95,1.15-.9,1.09.09,1.33,1.64,1.33,1.64v4.95Z" style="opacity:0.30000000000000004"></path><path d="M117.93,198.89v-4.1a3.58,3.58,0,0,0-.35-1.58c-.24-.48-.62-1-1.16-.91-1.08.1-1.32,1.65-1.32,1.65v4.94Z" style="opacity:0.30000000000000004"></path><path d="M114.49,198.88v-4.95s-.12-1.64-1.41-1.64-1.42,1.64-1.42,1.64v4.95Z" style="opacity:0.30000000000000004"></path><rect x="112.58" y="175.08" width="1" height="7.34" style="fill:#407BFF"></rect><polygon points="124.57 326.61 101.59 326.61 106.49 203.79 119.67 203.79 124.57 326.61" style="fill:#407BFF"></polygon><polygon points="101.59 326.61 106.47 203.6 109.78 203.6 106.93 326.61 101.59 326.61" style="fill:#fff;opacity:0.1"></polygon><rect x="103.14" y="236.09" width="19.77" height="4.99" style="fill:#407BFF"></rect><circle cx="113.08" cy="177.97" r="0.6" style="fill:#407BFF"></circle><path d="M113.83,179.5a.75.75,0,1,1-.75-.75A.76.76,0,0,1,113.83,179.5Z" style="fill:#407BFF"></path><path d="M107.41,189c0-4.54,2.54-8.22,5.67-8.22s5.66,3.68,5.66,8.22Z" style="fill:#407BFF"></path><g style="opacity:0.2"><path d="M107.41,189c0-4.54,2.54-8.22,5.67-8.22s5.66,3.68,5.66,8.22Z" style="fill:#fff"></path></g><polygon points="104.17 191.04 107.41 188.95 118.74 188.95 121.68 191.04 104.17 191.04" style="fill:#407BFF"></polygon><polygon points="104.17 191.04 107.41 188.95 118.74 188.95 121.68 191.04 104.17 191.04" style="fill:#fff;opacity:0.1"></polygon><rect x="104.77" y="200.23" width="16.62" height="3.37" style="fill:#407BFF"></rect><rect x="104.77" y="200.23" width="16.62" height="3.37" style="fill:#fff;opacity:0.1"></rect><polygon points="104.77 203.6 105.65 204.55 120.53 204.55 121.39 203.6 104.77 203.6" style="fill:#407BFF"></polygon><polygon points="104.77 203.6 105.65 204.55 120.53 204.55 121.39 203.6 104.77 203.6" style="fill:#263238;opacity:0.2"></polygon><rect x="105.65" y="204.55" width="14.78" height="1.46" style="fill:#407BFF"></rect><polygon points="105.65 206.01 106.33 206.59 119.86 206.59 120.43 206.01 105.65 206.01" style="fill:#407BFF"></polygon><polygon points="105.65 206.01 106.33 206.59 119.86 206.59 120.43 206.01 105.65 206.01" style="fill:#263238;opacity:0.2"></polygon><rect x="103.3" y="236.24" width="19.36" height="3.37" style="fill:#407BFF"></rect><rect x="103.3" y="236.24" width="19.36" height="3.37" style="fill:#fff;opacity:0.1"></rect><polygon points="103.3 239.61 104.18 240.56 121.8 240.56 122.66 239.61 103.3 239.61" style="fill:#407BFF"></polygon><polygon points="103.3 239.61 104.18 240.56 121.8 240.56 122.66 239.61 103.3 239.61" style="fill:#263238;opacity:0.2"></polygon><rect x="104.18" y="240.56" width="17.52" height="1.46" style="fill:#407BFF"></rect><polygon points="104.18 242.03 104.86 242.6 121.13 242.6 121.7 242.03 104.18 242.03" style="fill:#407BFF"></polygon><polygon points="104.18 242.03 104.86 242.6 121.13 242.6 121.7 242.03 104.18 242.03" style="fill:#263238;opacity:0.2"></polygon><rect x="102.06" y="268.85" width="22.02" height="3.37" style="fill:#407BFF"></rect><rect x="102.06" y="268.85" width="22.02" height="3.37" style="fill:#fff;opacity:0.1"></rect><polygon points="102.06 272.22 102.94 273.17 123.22 273.17 124.08 272.22 102.06 272.22" style="fill:#407BFF"></polygon><polygon points="102.06 272.22 102.94 273.17 123.22 273.17 124.08 272.22 102.06 272.22" style="fill:#263238;opacity:0.2"></polygon><rect x="102.94" y="273.17" width="20.19" height="1.46" style="fill:#407BFF"></rect><polygon points="102.94 274.63 103.62 275.21 122.56 275.21 123.13 274.63 102.94 274.63" style="fill:#407BFF"></polygon><polygon points="102.94 274.63 103.62 275.21 122.56 275.21 123.13 274.63 102.94 274.63" style="fill:#263238;opacity:0.2"></polygon><rect x="65.05" y="295.36" width="186.14" height="31.25" style="fill:#407BFF"></rect><g style="opacity:0.1"><rect x="65.05" y="295.36" width="186.14" height="31.25" style="fill:#fff"></rect></g><rect x="380.69" y="190.41" width="11.16" height="4.28" transform="translate(772.53 385.1) rotate(180)" style="fill:#407BFF"></rect><rect x="380.69" y="198.88" width="11.16" height="1.36" transform="translate(772.53 399.11) rotate(180)" style="fill:#407BFF"></rect><rect x="380.86" y="194.26" width="10.83" height="4.61" transform="translate(772.55 393.14) rotate(180)" style="fill:#407BFF"></rect><g style="opacity:0.2"><rect x="380.86" y="194.26" width="10.83" height="4.61" transform="translate(772.55 393.14) rotate(180)"></rect></g><path d="M391.14,198.88v-4.11a3.61,3.61,0,0,0-.35-1.58c-.24-.48-.62-.95-1.16-.9-1.08.09-1.32,1.64-1.32,1.64v4.95Z" style="opacity:0.30000000000000004"></path><path d="M381.42,198.89v-4.1a3.44,3.44,0,0,1,.35-1.58c.24-.48.61-1,1.15-.91,1.09.1,1.33,1.65,1.33,1.65v4.94Z" style="opacity:0.30000000000000004"></path><path d="M384.86,198.88v-4.95s.12-1.64,1.41-1.64,1.41,1.64,1.41,1.64v4.95Z" style="opacity:0.30000000000000004"></path><rect x="385.77" y="175.08" width="1" height="7.34" style="fill:#407BFF"></rect><polygon points="374.78 326.61 397.75 326.61 392.86 203.79 379.67 203.79 374.78 326.61" style="fill:#407BFF"></polygon><polygon points="397.75 326.61 392.87 203.6 389.56 203.6 392.42 326.61 397.75 326.61" style="fill:#fff;opacity:0.1"></polygon><rect x="376.43" y="236.09" width="19.77" height="4.99" transform="translate(772.64 477.16) rotate(180)" style="fill:#407BFF"></rect><circle cx="386.27" cy="177.97" r="0.6" style="fill:#407BFF"></circle><path d="M385.52,179.5a.75.75,0,1,0,.75-.75A.76.76,0,0,0,385.52,179.5Z" style="fill:#407BFF"></path><path d="M391.93,189c0-4.54-2.53-8.22-5.66-8.22s-5.66,3.68-5.66,8.22Z" style="fill:#407BFF"></path><g style="opacity:0.2"><path d="M391.93,189c0-4.54-2.53-8.22-5.66-8.22s-5.66,3.68-5.66,8.22Z" style="fill:#fff"></path></g><polygon points="395.18 191.04 391.93 188.95 380.61 188.95 377.67 191.04 395.18 191.04" style="fill:#407BFF"></polygon><polygon points="395.18 191.04 391.93 188.95 380.61 188.95 377.67 191.04 395.18 191.04" style="fill:#fff;opacity:0.1"></polygon><rect x="377.96" y="200.23" width="16.62" height="3.37" transform="translate(772.53 403.83) rotate(180)" style="fill:#407BFF"></rect><rect x="377.96" y="200.23" width="16.62" height="3.37" transform="translate(772.53 403.83) rotate(180)" style="fill:#fff;opacity:0.1"></rect><polygon points="394.57 203.6 393.69 204.55 378.82 204.55 377.96 203.6 394.57 203.6" style="fill:#407BFF"></polygon><polygon points="394.57 203.6 393.69 204.55 378.82 204.55 377.96 203.6 394.57 203.6" style="fill:#263238;opacity:0.2"></polygon><rect x="378.91" y="204.55" width="14.78" height="1.46" transform="translate(772.61 410.57) rotate(180)" style="fill:#407BFF"></rect><polygon points="393.69 206.01 393.02 206.59 379.49 206.59 378.91 206.01 393.69 206.01" style="fill:#407BFF"></polygon><polygon points="393.69 206.01 393.02 206.59 379.49 206.59 378.91 206.01 393.69 206.01" style="fill:#263238;opacity:0.2"></polygon><rect x="376.69" y="236.24" width="19.36" height="3.37" transform="translate(772.74 475.85) rotate(180)" style="fill:#407BFF"></rect><rect x="376.69" y="236.24" width="19.36" height="3.37" transform="translate(772.74 475.85) rotate(180)" style="fill:#fff;opacity:0.1"></rect><polygon points="396.05 239.61 395.17 240.56 377.55 240.56 376.69 239.61 396.05 239.61" style="fill:#407BFF"></polygon><polygon points="396.05 239.61 395.17 240.56 377.55 240.56 376.69 239.61 396.05 239.61" style="fill:#263238;opacity:0.2"></polygon><rect x="377.64" y="240.56" width="17.52" height="1.46" transform="translate(772.81 482.59) rotate(180)" style="fill:#407BFF"></rect><polygon points="395.17 242.03 394.49 242.6 378.22 242.6 377.64 242.03 395.17 242.03" style="fill:#407BFF"></polygon><polygon points="395.17 242.03 394.49 242.6 378.22 242.6 377.64 242.03 395.17 242.03" style="fill:#263238;opacity:0.2"></polygon><rect x="375.26" y="268.85" width="22.02" height="3.37" transform="translate(772.55 541.07) rotate(180)" style="fill:#407BFF"></rect><rect x="375.26" y="268.85" width="22.02" height="3.37" transform="translate(772.55 541.07) rotate(180)" style="fill:#fff;opacity:0.1"></rect><polygon points="397.29 272.22 396.4 273.17 376.12 273.17 375.26 272.22 397.29 272.22" style="fill:#407BFF"></polygon><polygon points="397.29 272.22 396.4 273.17 376.12 273.17 375.26 272.22 397.29 272.22" style="fill:#263238;opacity:0.2"></polygon><rect x="376.22" y="273.17" width="20.19" height="1.46" transform="translate(772.62 547.8) rotate(180)" style="fill:#407BFF"></rect><polygon points="396.4 274.63 395.73 275.21 376.79 275.21 376.22 274.63 396.4 274.63" style="fill:#407BFF"></polygon><polygon points="396.4 274.63 395.73 275.21 376.79 275.21 376.22 274.63 396.4 274.63" style="fill:#263238;opacity:0.2"></polygon><rect x="250.32" y="295.36" width="186.14" height="31.25" style="fill:#407BFF"></rect><g style="opacity:0.1"><rect x="250.32" y="295.36" width="186.14" height="31.25" style="fill:#fff"></rect></g><rect x="62.69" y="153.12" width="14.21" height="5.45" style="fill:#407BFF"></rect><rect x="62.69" y="163.9" width="14.21" height="1.73" style="fill:#407BFF"></rect><rect x="62.89" y="158.02" width="13.79" height="5.88" style="fill:#407BFF"></rect><g style="opacity:0.2"><rect x="62.89" y="158.02" width="13.79" height="5.88"></rect></g><path d="M63.6,163.9v-5.23a4.47,4.47,0,0,1,.44-2c.3-.62.78-1.22,1.47-1.16,1.38.12,1.69,2.1,1.69,2.1v6.3Z" style="opacity:0.30000000000000004"></path><path d="M76,163.92v-5.23a4.51,4.51,0,0,0-.45-2c-.3-.61-.78-1.21-1.47-1.15-1.38.12-1.69,2.09-1.69,2.09v6.3Z" style="opacity:0.30000000000000004"></path><path d="M71.6,163.9v-6.3s-.15-2.1-1.8-2.1S68,157.6,68,157.6v6.3Z" style="opacity:0.30000000000000004"></path><rect x="69.3" y="133.58" width="1" height="9.35" style="fill:#407BFF"></rect><polygon points="84.44 326.61 55.17 326.61 61.41 170.16 78.2 170.16 84.44 326.61" style="fill:#407BFF"></polygon><polygon points="55.17 326.61 61.38 169.91 65.6 169.91 61.96 326.61 55.17 326.61" style="fill:#fff;opacity:0.1"></polygon><rect x="57.14" y="211.3" width="25.19" height="6.36" style="fill:#407BFF"></rect><path d="M70.56,137.27a.77.77,0,0,1-1.53,0,.77.77,0,1,1,1.53,0Z" style="fill:#407BFF"></path><path d="M70.75,139.21a1,1,0,1,1-1-1A1,1,0,0,1,70.75,139.21Z" style="fill:#407BFF"></path><path d="M62.58,151.26c0-5.79,3.23-10.48,7.22-10.48S77,145.47,77,151.26Z" style="fill:#407BFF"></path><g style="opacity:0.2"><path d="M62.58,151.26c0-5.79,3.23-10.48,7.22-10.48S77,145.47,77,151.26Z" style="fill:#fff"></path></g><polygon points="58.45 153.91 62.58 151.26 77.01 151.26 80.75 153.91 58.45 153.91" style="fill:#407BFF"></polygon><polygon points="58.45 153.91 62.58 151.26 77.01 151.26 80.75 153.91 58.45 153.91" style="fill:#fff;opacity:0.1"></polygon><rect x="59.22" y="165.63" width="21.17" height="4.29" style="fill:#407BFF"></rect><rect x="59.22" y="165.63" width="21.17" height="4.29" style="fill:#fff;opacity:0.1"></rect><polygon points="59.22 169.91 60.34 171.13 79.29 171.13 80.39 169.91 59.22 169.91" style="fill:#407BFF"></polygon><polygon points="59.22 169.91 60.34 171.13 79.29 171.13 80.39 169.91 59.22 169.91" style="fill:#263238;opacity:0.2"></polygon><rect x="60.34" y="171.13" width="18.83" height="1.86" style="fill:#407BFF"></rect><polygon points="60.34 172.99 61.2 173.72 78.44 173.72 79.17 172.99 60.34 172.99" style="fill:#407BFF"></polygon><polygon points="60.34 172.99 61.2 173.72 78.44 173.72 79.17 172.99 60.34 172.99" style="fill:#263238;opacity:0.2"></polygon><rect x="57.34" y="211.5" width="24.66" height="4.29" style="fill:#407BFF"></rect><rect x="57.34" y="211.5" width="24.66" height="4.29" style="fill:#fff;opacity:0.1"></rect><polygon points="57.34 215.78 58.47 217 80.9 217 82 215.78 57.34 215.78" style="fill:#407BFF"></polygon><polygon points="57.34 215.78 58.47 217 80.9 217 82 215.78 57.34 215.78" style="fill:#263238;opacity:0.2"></polygon><rect x="58.47" y="217" width="22.32" height="1.86" style="fill:#407BFF"></rect><polygon points="58.47 218.86 59.32 219.59 80.05 219.59 80.78 218.86 58.47 218.86" style="fill:#407BFF"></polygon><polygon points="58.47 218.86 59.32 219.59 80.05 219.59 80.78 218.86 58.47 218.86" style="fill:#263238;opacity:0.2"></polygon><rect x="55.76" y="253.03" width="28.05" height="4.29" style="fill:#407BFF"></rect><rect x="55.76" y="253.03" width="28.05" height="4.29" style="fill:#fff;opacity:0.1"></rect><polygon points="55.76 257.32 56.89 258.54 82.72 258.54 83.82 257.32 55.76 257.32" style="fill:#407BFF"></polygon><polygon points="55.76 257.32 56.89 258.54 82.72 258.54 83.82 257.32 55.76 257.32" style="fill:#263238;opacity:0.2"></polygon><rect x="56.89" y="258.54" width="25.71" height="1.86" style="fill:#407BFF"></rect><polygon points="56.89 260.4 57.75 261.13 81.87 261.13 82.6 260.4 56.89 260.4" style="fill:#407BFF"></polygon><polygon points="56.89 260.4 57.75 261.13 81.87 261.13 82.6 260.4 56.89 260.4" style="fill:#263238;opacity:0.2"></polygon><rect x="422.44" y="153.12" width="14.21" height="5.45" transform="translate(859.09 311.68) rotate(180)" style="fill:#407BFF"></rect><rect x="422.44" y="163.9" width="14.21" height="1.73" transform="translate(859.09 329.52) rotate(180)" style="fill:#407BFF"></rect><rect x="422.66" y="158.02" width="13.79" height="5.88" transform="translate(859.12 321.92) rotate(180)" style="fill:#407BFF"></rect><g style="opacity:0.2"><rect x="422.66" y="158.02" width="13.79" height="5.88" transform="translate(859.12 321.92) rotate(180)"></rect></g><path d="M435.75,163.9v-5.23a4.47,4.47,0,0,0-.44-2c-.31-.62-.79-1.22-1.48-1.16-1.38.12-1.68,2.1-1.68,2.1v6.3Z" style="opacity:0.30000000000000004"></path><path d="M423.37,163.92v-5.23a4.5,4.5,0,0,1,.44-2c.31-.61.79-1.21,1.48-1.15,1.38.12,1.68,2.09,1.68,2.09v6.3Z" style="opacity:0.30000000000000004"></path><path d="M427.75,163.9v-6.3s.15-2.1,1.8-2.1,1.8,2.1,1.8,2.1v6.3Z" style="opacity:0.30000000000000004"></path><rect x="429.05" y="133.58" width="1" height="9.35" style="fill:#407BFF"></rect><polygon points="414.91 326.61 444.18 326.61 437.94 170.16 421.15 170.16 414.91 326.61" style="fill:#407BFF"></polygon><polygon points="444.18 326.61 437.96 169.91 433.75 169.91 437.38 326.61 444.18 326.61" style="fill:#fff;opacity:0.1"></polygon><rect x="417.02" y="211.3" width="25.19" height="6.36" transform="translate(859.23 428.95) rotate(180)" style="fill:#407BFF"></rect><path d="M428.79,137.27a.76.76,0,1,0,1.52,0,.76.76,0,1,0-1.52,0Z" style="fill:#407BFF"></path><path d="M428.59,139.21a1,1,0,1,0,1-1A1,1,0,0,0,428.59,139.21Z" style="fill:#407BFF"></path><path d="M436.76,151.26c0-5.79-3.23-10.48-7.21-10.48s-7.21,4.69-7.21,10.48Z" style="fill:#407BFF"></path><g style="opacity:0.2"><path d="M436.76,151.26c0-5.79-3.23-10.48-7.21-10.48s-7.21,4.69-7.21,10.48Z" style="fill:#fff"></path></g><polygon points="440.9 153.91 436.76 151.26 422.34 151.26 418.59 153.91 440.9 153.91" style="fill:#407BFF"></polygon><polygon points="440.9 153.91 436.76 151.26 422.34 151.26 418.59 153.91 440.9 153.91" style="fill:#fff;opacity:0.1"></polygon><rect x="418.96" y="165.63" width="21.17" height="4.29" transform="translate(859.09 335.54) rotate(180)" style="fill:#407BFF"></rect><rect x="418.96" y="165.63" width="21.17" height="4.29" transform="translate(859.09 335.54) rotate(180)" style="fill:#fff;opacity:0.1"></rect><polygon points="440.13 169.91 439.01 171.13 420.06 171.13 418.96 169.91 440.13 169.91" style="fill:#407BFF"></polygon><polygon points="440.13 169.91 439.01 171.13 420.06 171.13 418.96 169.91 440.13 169.91" style="fill:#263238;opacity:0.2"></polygon><rect x="420.18" y="171.13" width="18.83" height="1.86" transform="translate(859.18 344.12) rotate(180)" style="fill:#407BFF"></rect><polygon points="439.01 172.99 438.15 173.72 420.91 173.72 420.18 172.99 439.01 172.99" style="fill:#407BFF"></polygon><polygon points="439.01 172.99 438.15 173.72 420.91 173.72 420.18 172.99 439.01 172.99" style="fill:#263238;opacity:0.2"></polygon><rect x="417.35" y="211.5" width="24.66" height="4.29" transform="translate(859.35 427.28) rotate(180)" style="fill:#407BFF"></rect><rect x="417.35" y="211.5" width="24.66" height="4.29" transform="translate(859.35 427.28) rotate(180)" style="fill:#fff;opacity:0.1"></rect><polygon points="442 215.78 440.88 217 418.44 217 417.35 215.78 442 215.78" style="fill:#407BFF"></polygon><polygon points="442 215.78 440.88 217 418.44 217 417.35 215.78 442 215.78" style="fill:#263238;opacity:0.2"></polygon><rect x="418.56" y="217" width="22.32" height="1.86" transform="translate(859.44 435.86) rotate(180)" style="fill:#407BFF"></rect><polygon points="440.88 218.86 440.02 219.59 419.29 219.59 418.56 218.86 440.88 218.86" style="fill:#407BFF"></polygon><polygon points="440.88 218.86 440.02 219.59 419.29 219.59 418.56 218.86 440.88 218.86" style="fill:#263238;opacity:0.2"></polygon><rect x="415.53" y="253.03" width="28.05" height="4.29" transform="translate(859.11 510.35) rotate(180)" style="fill:#407BFF"></rect><rect x="415.53" y="253.03" width="28.05" height="4.29" transform="translate(859.11 510.35) rotate(180)" style="fill:#fff;opacity:0.1"></rect><polygon points="443.58 257.32 442.46 258.54 416.63 258.54 415.53 257.32 443.58 257.32" style="fill:#407BFF"></polygon><polygon points="443.58 257.32 442.46 258.54 416.63 258.54 415.53 257.32 443.58 257.32" style="fill:#263238;opacity:0.2"></polygon><rect x="416.74" y="258.54" width="25.71" height="1.86" transform="translate(859.2 518.93) rotate(180)" style="fill:#407BFF"></rect><polygon points="442.46 260.4 441.6 261.13 417.48 261.13 416.75 260.4 442.46 260.4" style="fill:#407BFF"></polygon><polygon points="442.46 260.4 441.6 261.13 417.48 261.13 416.75 260.4 442.46 260.4" style="fill:#263238;opacity:0.2"></polygon><rect x="54.54" y="295.36" width="390.93" height="3.69" style="fill:#407BFF"></rect><rect x="54.54" y="295.36" width="390.93" height="3.69" style="fill:#fff;opacity:0.30000000000000004"></rect><path d="M249.66,90.9A2.06,2.06,0,1,0,252,93,2.2,2.2,0,0,0,249.66,90.9Z" style="fill:#fff;opacity:0.30000000000000004"></path><ellipse cx="249.66" cy="79.01" rx="2.32" ry="2.05" style="fill:#fff;opacity:0.30000000000000004"></ellipse><path d="M249.7,90.59a3.55,3.55,0,1,0-3.15-3.53A3.36,3.36,0,0,0,249.7,90.59Z" style="fill:#fff;opacity:0.30000000000000004"></path><path d="M249.7,74.08h.22A3.16,3.16,0,0,0,252.47,72l.26-.74h-5.84l.26.74A3.16,3.16,0,0,0,249.7,74.08Z" style="fill:#fff;opacity:0.30000000000000004"></path><path d="M113.08,178.57a.6.6,0,1,0,0-1.2.6.6,0,1,0,0,1.2Z" style="fill:#fff;opacity:0.30000000000000004"></path><path d="M113.08,180.25a.75.75,0,1,0-.75-.75A.76.76,0,0,0,113.08,180.25Z" style="fill:#fff;opacity:0.30000000000000004"></path><path d="M386.27,178.57a.6.6,0,1,0-.6-.6A.6.6,0,0,0,386.27,178.57Z" style="fill:#fff;opacity:0.30000000000000004"></path><path d="M386.27,180.25a.75.75,0,1,0-.75-.75A.76.76,0,0,0,386.27,180.25Z" style="fill:#fff;opacity:0.30000000000000004"></path><path d="M69.8,138a.76.76,0,0,0,.76-.76.77.77,0,1,0-.76.76Z" style="fill:#fff;opacity:0.30000000000000004"></path><path d="M69.8,140.17a1,1,0,1,0-1-1A1,1,0,0,0,69.8,140.17Z" style="fill:#fff;opacity:0.30000000000000004"></path><path d="M429.55,138a.77.77,0,0,0,.77-.76.78.78,0,0,0-.77-.77.77.77,0,0,0-.76.77A.76.76,0,0,0,429.55,138Z" style="fill:#fff;opacity:0.30000000000000004"></path><path d="M429.55,140.17a1,1,0,1,0-1-1A1,1,0,0,0,429.55,140.17Z" style="fill:#fff;opacity:0.30000000000000004"></path><path d="M97.2,322H84.91l0-5.41c-.23-6.68.88-7.08,2.41-8,2.47-1.45,3.71-2.12,3.71-2.12s1.23.67,3.7,2.12c1.53.9,2.65,1.3,2.41,8Z" style="opacity:0.2"></path><path d="M113.93,322H101.64l0-5.41c-.24-6.68.88-7.08,2.41-8,2.47-1.45,3.7-2.12,3.7-2.12s1.24.67,3.71,2.12c1.53.9,2.64,1.3,2.41,8Z" style="opacity:0.2"></path><path d="M130.66,322H118.37l0-5.41c-.24-6.68.88-7.08,2.41-8,2.46-1.45,3.7-2.12,3.7-2.12s1.24.67,3.7,2.12c1.53.9,2.65,1.3,2.41,8Z" style="opacity:0.2"></path><path d="M147.38,322H135.09l0-5.41c-.23-6.68.89-7.08,2.41-8,2.47-1.45,3.71-2.12,3.71-2.12s1.24.67,3.7,2.12c1.53.9,2.65,1.3,2.41,8Z" style="opacity:0.2"></path><path d="M164.11,322H151.82l0-5.41c-.23-6.68.88-7.08,2.41-8,2.47-1.45,3.71-2.12,3.71-2.12s1.23.67,3.7,2.12c1.53.9,2.64,1.3,2.41,8Z" style="opacity:0.2"></path><path d="M180.84,322H168.55l0-5.41c-.24-6.68.88-7.08,2.41-8,2.46-1.45,3.7-2.12,3.7-2.12s1.24.67,3.71,2.12c1.53.9,2.64,1.3,2.41,8Z" style="opacity:0.2"></path><path d="M197.57,322H185.28l0-5.41c-.24-6.68.88-7.08,2.41-8,2.46-1.45,3.7-2.12,3.7-2.12s1.24.67,3.7,2.12c1.53.9,2.65,1.3,2.41,8Z" style="opacity:0.2"></path><path d="M214.29,322H202l0-5.41c-.23-6.68.89-7.08,2.41-8,2.47-1.45,3.71-2.12,3.71-2.12s1.23.67,3.7,2.12c1.53.9,2.65,1.3,2.41,8Z" style="opacity:0.2"></path><path d="M231,322H218.73l0-5.41c-.24-6.68.88-7.08,2.41-8,2.47-1.45,3.71-2.12,3.71-2.12s1.23.67,3.7,2.12c1.53.9,2.64,1.3,2.41,8Z" style="opacity:0.2"></path><path d="M247.75,322H235.46l0-5.41c-.24-6.68.88-7.08,2.41-8,2.46-1.45,3.7-2.12,3.7-2.12s1.24.67,3.71,2.12c1.53.9,2.64,1.3,2.41,8Z" style="opacity:0.2"></path><path d="M264.48,322h-12.3l0-5.41c-.23-6.68.89-7.08,2.41-8,2.47-1.45,3.71-2.12,3.71-2.12s1.24.67,3.7,2.12c1.53.9,2.65,1.3,2.41,8Z" style="opacity:0.2"></path><path d="M281.2,322H268.91l0-5.41c-.23-6.68.88-7.08,2.41-8,2.47-1.45,3.71-2.12,3.71-2.12s1.23.67,3.7,2.12c1.53.9,2.65,1.3,2.41,8Z" style="opacity:0.2"></path><path d="M297.93,322H285.64l0-5.41c-.24-6.68.88-7.08,2.41-8,2.47-1.45,3.7-2.12,3.7-2.12s1.24.67,3.71,2.12c1.53.9,2.64,1.3,2.41,8Z" style="opacity:0.2"></path><path d="M314.66,322H302.37l0-5.41c-.24-6.68.88-7.08,2.41-8,2.46-1.45,3.7-2.12,3.7-2.12s1.24.67,3.7,2.12c1.54.9,2.65,1.3,2.41,8Z" style="opacity:0.2"></path><path d="M331.38,322H319.09l0-5.41c-.23-6.68.89-7.08,2.41-8,2.47-1.45,3.71-2.12,3.71-2.12s1.24.67,3.7,2.12c1.53.9,2.65,1.3,2.41,8Z" style="opacity:0.2"></path><path d="M348.11,322H335.82l0-5.41c-.23-6.68.88-7.08,2.41-8,2.47-1.45,3.71-2.12,3.71-2.12s1.23.67,3.7,2.12c1.53.9,2.64,1.3,2.41,8Z" style="opacity:0.2"></path><path d="M364.84,322H352.55l0-5.41c-.24-6.68.88-7.08,2.41-8,2.46-1.45,3.7-2.12,3.7-2.12s1.24.67,3.71,2.12c1.53.9,2.64,1.3,2.41,8Z" style="opacity:0.2"></path><path d="M381.57,322H369.28l0-5.41c-.24-6.68.88-7.08,2.41-8,2.46-1.45,3.7-2.12,3.7-2.12s1.24.67,3.7,2.12c1.53.9,2.65,1.3,2.41,8Z" style="opacity:0.2"></path><path d="M398.29,322H386l0-5.41c-.23-6.68.89-7.08,2.41-8,2.47-1.45,3.71-2.12,3.71-2.12s1.23.67,3.7,2.12c1.53.9,2.65,1.3,2.41,8Z" style="opacity:0.2"></path><path d="M415,322H402.73l0-5.41c-.23-6.68.88-7.08,2.41-8,2.47-1.45,3.71-2.12,3.71-2.12s1.23.67,3.7,2.12c1.53.9,2.64,1.3,2.41,8Z" style="opacity:0.2"></path><rect x="54.95" y="322.06" width="389.05" height="15.91" style="fill:#407BFF"></rect><rect x="54.95" y="322.06" width="389.05" height="15.91" style="fill:#fff;opacity:0.30000000000000004"></rect><rect x="213.81" y="331.41" width="72.38" height="6.76" style="fill:#fff"></rect><rect x="217.54" y="328.41" width="64.93" height="6.76" style="fill:#fff"></rect><rect x="221.27" y="325.4" width="57.47" height="6.76" style="fill:#fff"></rect><rect x="225" y="322.4" width="50.01" height="6.76" style="fill:#fff"></rect></g><g id="freepik--Trees--inject-112"><path d="M200.27,347.57c0,.82-2.59,1.48-5.79,1.48s-5.79-.66-5.79-1.48,2.59-1.48,5.79-1.48S200.27,346.76,200.27,347.57Z" style="fill:#e0e0e0"></path><polygon points="193.1 347.22 195.75 347.22 195.75 321.64 193.1 321.52 193.1 347.22" style="fill:#263238"></polygon><path d="M193.67,297.16a6,6,0,0,1,6.32.77,7.82,7.82,0,0,1,2.63,6s-2.31,7.62-2,26.94c.12,6.21-2.56,9.12-5.56,9.91l0,0c-3.55.84-6.84-2.43-6.67-9.78.56-23.9.84-25.92.84-25.92a9.55,9.55,0,0,1,1.66-5.22A8.05,8.05,0,0,1,193.67,297.16Z" style="fill:#263238"></path><path d="M193.67,297.16a6,6,0,0,1,6.32.77,7.82,7.82,0,0,1,2.63,6s-2.31,7.62-2,26.94c.12,6.21-2.56,9.12-5.56,9.91l0,0c-3.55.84-6.84-2.43-6.67-9.78.56-23.9.84-25.92.84-25.92a9.55,9.55,0,0,1,1.66-5.22A8.05,8.05,0,0,1,193.67,297.16Z" style="fill:#fff;opacity:0.2"></path><path d="M167.94,380.14c0,1.17-3.7,2.11-8.27,2.11s-8.28-.94-8.28-2.11,3.7-2.12,8.28-2.12S167.94,379,167.94,380.14Z" style="fill:#e0e0e0"></path><polygon points="157.69 379.63 161.48 379.63 161.48 343.07 157.69 342.9 157.69 379.63" style="fill:#263238"></polygon><path d="M156.91,292.83a9.76,9.76,0,0,1,9.08.89,9.57,9.57,0,0,1,4,7.52s-1.55,23.73-.26,53.51c.44,10.05-3.9,14.7-8.85,15.86l-.07,0c-5.85,1.21-11.28-4.34-11-16.17.87-36.27.79-51.66.79-51.66a11.13,11.13,0,0,1,2.37-6.59A11,11,0,0,1,156.91,292.83Z" style="fill:#263238"></path><path d="M156.91,292.83a9.76,9.76,0,0,1,9.08.89,9.57,9.57,0,0,1,4,7.52s-1.55,23.73-.26,53.51c.44,10.05-3.9,14.7-8.85,15.86l-.07,0c-5.85,1.21-11.28-4.34-11-16.17.87-36.27.79-51.66.79-51.66a11.13,11.13,0,0,1,2.37-6.59A11,11,0,0,1,156.91,292.83Z" style="fill:#263238"></path><path d="M156.91,292.83a9.76,9.76,0,0,1,9.08.89,9.57,9.57,0,0,1,4,7.52s-1.55,23.73-.26,53.51c.44,10.05-3.9,14.7-8.85,15.86l-.07,0c-5.85,1.21-11.28-4.34-11-16.17.87-36.27.79-51.66.79-51.66a11.13,11.13,0,0,1,2.37-6.59A11,11,0,0,1,156.91,292.83Z" style="fill:#fff;opacity:0.2"></path><ellipse cx="179.07" cy="361.98" rx="6.48" ry="1.66" style="fill:#e0e0e0"></ellipse><polygon points="177.52 361.58 180.49 361.58 180.49 332.98 177.52 332.85 177.52 361.58" style="fill:#263238"></polygon><path d="M176.92,293.67a7.64,7.64,0,0,1,7.1.69,7.51,7.51,0,0,1,3.11,5.89s-1.21,18.57-.2,41.87c.34,7.86-3.05,11.5-6.92,12.41H180c-4.58.95-8.83-3.39-8.6-12.64.68-28.38.62-40.43.62-40.43a8.67,8.67,0,0,1,1.85-5.16A8.5,8.5,0,0,1,176.92,293.67Z" style="fill:#263238"></path><path d="M176.92,293.67a7.64,7.64,0,0,1,7.1.69,7.51,7.51,0,0,1,3.11,5.89s-1.21,18.57-.2,41.87c.34,7.86-3.05,11.5-6.92,12.41H180c-4.58.95-8.83-3.39-8.6-12.64.68-28.38.62-40.43.62-40.43a8.67,8.67,0,0,1,1.85-5.16A8.5,8.5,0,0,1,176.92,293.67Z" style="fill:#263238"></path><path d="M176.92,293.67a7.64,7.64,0,0,1,7.1.69,7.51,7.51,0,0,1,3.11,5.89s-1.21,18.57-.2,41.87c.34,7.86-3.05,11.5-6.92,12.41H180c-4.58.95-8.83-3.39-8.6-12.64.68-28.38.62-40.43.62-40.43a8.67,8.67,0,0,1,1.85-5.16A8.5,8.5,0,0,1,176.92,293.67Z" style="fill:#fff;opacity:0.2"></path><path d="M299.73,347.57c0,.82,2.59,1.48,5.79,1.48s5.79-.66,5.79-1.48-2.59-1.48-5.79-1.48S299.73,346.76,299.73,347.57Z" style="fill:#e0e0e0"></path><polygon points="306.9 347.22 304.25 347.22 304.25 321.64 306.9 321.52 306.9 347.22" style="fill:#263238"></polygon><path d="M306.33,297.16a6,6,0,0,0-6.32.77,7.82,7.82,0,0,0-2.63,6s2.31,7.62,1.95,26.94c-.12,6.21,2.56,9.12,5.56,9.91l0,0c3.55.84,6.84-2.43,6.67-9.78-.56-23.9-.84-25.92-.84-25.92a9.55,9.55,0,0,0-1.66-5.22A8.05,8.05,0,0,0,306.33,297.16Z" style="fill:#263238"></path><path d="M306.33,297.16a6,6,0,0,0-6.32.77,7.82,7.82,0,0,0-2.63,6s2.31,7.62,1.95,26.94c-.12,6.21,2.56,9.12,5.56,9.91l0,0c3.55.84,6.84-2.43,6.67-9.78-.56-23.9-.84-25.92-.84-25.92a9.55,9.55,0,0,0-1.66-5.22A8.05,8.05,0,0,0,306.33,297.16Z" style="fill:#fff;opacity:0.2"></path><path d="M332.06,380.14c0,1.17,3.7,2.11,8.27,2.11s8.28-.94,8.28-2.11-3.7-2.12-8.28-2.12S332.06,379,332.06,380.14Z" style="fill:#e0e0e0"></path><polygon points="342.31 379.63 338.52 379.63 338.52 343.07 342.31 342.9 342.31 379.63" style="fill:#263238"></polygon><path d="M343.09,292.83a9.76,9.76,0,0,0-9.08.89,9.57,9.57,0,0,0-4,7.52s1.55,23.73.26,53.51c-.44,10.05,3.9,14.7,8.85,15.86l.07,0c5.85,1.21,11.28-4.34,11-16.17-.87-36.27-.79-51.66-.79-51.66a11.13,11.13,0,0,0-2.37-6.59A11,11,0,0,0,343.09,292.83Z" style="fill:#263238"></path><path d="M343.09,292.83a9.76,9.76,0,0,0-9.08.89,9.57,9.57,0,0,0-4,7.52s1.55,23.73.26,53.51c-.44,10.05,3.9,14.7,8.85,15.86l.07,0c5.85,1.21,11.28-4.34,11-16.17-.87-36.27-.79-51.66-.79-51.66a11.13,11.13,0,0,0-2.37-6.59A11,11,0,0,0,343.09,292.83Z" style="fill:#263238"></path><path d="M343.09,292.83a9.76,9.76,0,0,0-9.08.89,9.57,9.57,0,0,0-4,7.52s1.55,23.73.26,53.51c-.44,10.05,3.9,14.7,8.85,15.86l.07,0c5.85,1.21,11.28-4.34,11-16.17-.87-36.27-.79-51.66-.79-51.66a11.13,11.13,0,0,0-2.37-6.59A11,11,0,0,0,343.09,292.83Z" style="fill:#fff;opacity:0.2"></path><ellipse cx="320.93" cy="361.98" rx="6.48" ry="1.66" style="fill:#e0e0e0"></ellipse><polygon points="322.48 361.58 319.51 361.58 319.51 332.98 322.48 332.85 322.48 361.58" style="fill:#263238"></polygon><path d="M323.08,293.67a7.64,7.64,0,0,0-7.1.69,7.51,7.51,0,0,0-3.11,5.89s1.21,18.57.2,41.87c-.34,7.86,3.05,11.5,6.92,12.41h.06c4.58.95,8.83-3.39,8.6-12.64-.68-28.38-.62-40.43-.62-40.43a8.67,8.67,0,0,0-1.85-5.16A8.5,8.5,0,0,0,323.08,293.67Z" style="fill:#263238"></path><path d="M323.08,293.67a7.64,7.64,0,0,0-7.1.69,7.51,7.51,0,0,0-3.11,5.89s1.21,18.57.2,41.87c-.34,7.86,3.05,11.5,6.92,12.41h.06c4.58.95,8.83-3.39,8.6-12.64-.68-28.38-.62-40.43-.62-40.43a8.67,8.67,0,0,0-1.85-5.16A8.5,8.5,0,0,0,323.08,293.67Z" style="fill:#263238"></path><path d="M323.08,293.67a7.64,7.64,0,0,0-7.1.69,7.51,7.51,0,0,0-3.11,5.89s1.21,18.57.2,41.87c-.34,7.86,3.05,11.5,6.92,12.41h.06c4.58.95,8.83-3.39,8.6-12.64-.68-28.38-.62-40.43-.62-40.43a8.67,8.67,0,0,0-1.85-5.16A8.5,8.5,0,0,0,323.08,293.67Z" style="fill:#fff;opacity:0.2"></path></g><g id="freepik--character-2--inject-112"><path d="M259.87,291.11q-5.31,54.61-12.76,109c2.65,3.81,7.76,3.75,12.3,2.77s8.75-3.22,13.33-4c7.27-1.23,14.61,1.32,21.41,4.15.11-34.85-6-70.27-15.42-103.82-1.27-4.53-2.87-9.39-6.73-12.08S260.33,286.43,259.87,291.11Z" style="fill:#407BFF"></path><path d="M259.87,291.11q-5.31,54.61-12.76,109c2.65,3.81,7.76,3.75,12.3,2.77s8.75-3.22,13.33-4c7.27-1.23,14.61,1.32,21.41,4.15.11-34.85-6-70.27-15.42-103.82-1.27-4.53-2.87-9.39-6.73-12.08S260.33,286.43,259.87,291.11Z" style="opacity:0.2"></path><path d="M260.05,190.73a3.61,3.61,0,0,0-1.19,3.73,12.76,12.76,0,0,0,1.79,3.74,8,8,0,0,1,1.43,3.86c0,1.45-.64,3,0,4.3a18.12,18.12,0,0,0,1.4,1.77c.42.62.52,1.61-.11,2,1.43,1.82,3.3,4,5.62,4.11a7.05,7.05,0,0,0,4.33-1.84,14.32,14.32,0,0,1,4-2.59c2-.67,4.25-.13,6.38.16s4.57.21,6.06-1.33a3.78,3.78,0,0,1-2.7-3.91,16.1,16.1,0,0,1,1.6-4.9c.44-1.1.74-2.5-.09-3.34a8.46,8.46,0,0,0-1.1-.74,1.19,1.19,0,0,1-.6-1.1,18.4,18.4,0,0,1,.82-2.58,3.07,3.07,0,0,0-.18-2.55c-.8-1.28-2.68-1.48-3.63-2.66a6.31,6.31,0,0,1-.92-2.4,9.31,9.31,0,0,0-5-6.38,8,8,0,0,0-4-.5,9.46,9.46,0,0,0-4.66,1.91c-.49-.57-1.37-.22-2.06.07a12.77,12.77,0,0,0-7.6,11.5C259.82,191.05,259.89,190.75,260.05,190.73Z" style="fill:#263238"></path><path d="M219.37,212.8c7,4,15.89,8.64,24.38,10.51a16.56,16.56,0,0,0,10-.83l7.71-3.31a12.1,12.1,0,0,0-3.74-7.3s-6.94,3-10,4.16c-8.4-1.8-17.78-4.24-26.18-6-.5-1.21-1.34-2.62-1.83-3.82a35.28,35.28,0,0,0-7.26-1.77,2.83,2.83,0,0,0-2.26.89,10.23,10.23,0,0,0-2.61,4.45C210.44,211.65,215.9,213.21,219.37,212.8Z" style="fill:#b25b52"></path><path d="M260.23,354.51c-1.52,30.39-3,59.76-3,59.76l6.8,1.35s7.66-35.68,8.53-60.39Z" style="fill:#b25b52"></path><path d="M253.79,413.63c-.9-.14-1.82-.44-2.06-.88a.66.66,0,0,1,.13-.75.91.91,0,0,1,.6-.32c1.27-.15,3.59,1.68,3.7,1.76a.18.18,0,0,1-.11.31A12.24,12.24,0,0,1,253.79,413.63Zm-.95-1.59a1.22,1.22,0,0,0-.33,0,.47.47,0,0,0-.38.19c-.16.2-.13.31-.09.37.27.53,2.11.81,3.49.85A8,8,0,0,0,252.84,412Z" style="fill:#407BFF"></path><path d="M256,413.75l-.07,0c-.81-.52-2.33-2.36-2-3.15,0-.2.23-.42.72-.39a1.27,1.27,0,0,1,.91.43c.82.9.72,2.9.71,3a.18.18,0,0,1-.1.15A.25.25,0,0,1,256,413.75Zm-1.34-3.22-.1,0c-.31,0-.35.1-.37.14-.12.49.85,1.89,1.67,2.56a4,4,0,0,0-.63-2.37.93.93,0,0,0-.57-.31Z" style="fill:#407BFF"></path><path d="M257,412.84,264.9,414a.64.64,0,0,1,.55.59l.48,6.68a1.08,1.08,0,0,1-1,1.16.89.89,0,0,1-.23,0c-2.86-.48-5.39-1-9-1.54-4.21-.63-3.22,0-8.18-.63-3-.41-3-3.88-1.74-3.86,5.9.13,6.76-1.53,9.3-3.27A2.63,2.63,0,0,1,257,412.84Z" style="fill:#263238"></path><path d="M272.53,355.23c.09-.78,1-6.63,2-13.59,0,0,6.69-29.35,7.94-44.33.81-9.65,4.48-15.88.57-38.11l-16.57,2.21-.58,4a139.93,139.93,0,0,0-2.64,24.27c-.17,6.86-1.59,36.28-3,64.81Z" style="fill:#b25b52"></path><path d="M282.45,297.31c-.2,2.39-.59,5.3-1.1,8.51-3.24-8.9-3.8-24.84-3.8-24.84l.44-3.7,5.36,4.43s.33,1.76.78,4.42C283.56,290.14,282.78,293.45,282.45,297.31Z" style="opacity:0.2"></path><path d="M299.27,348.64c1.29,1.16,24.76,60.25,24.76,60.25l6-3.8s-5.36-31.8-9.94-43.53a87.05,87.05,0,0,0-11.53-20.41Z" style="fill:#b25b52"></path><path d="M300.06,352.16c-.61-2.45-1.87-4.76-2.41-7.25,0,0-23.08-54.27-23.3-80.23l0-4.57,16.42-1.72s6.27,12.72,9.16,24.29,12.37,58.6,12.37,58.6.72,2.55,2,7.41Z" style="fill:#b25b52"></path><path d="M323.12,408l7-4.69a.68.68,0,0,1,.84.08l5.09,4.86a1.14,1.14,0,0,1,.05,1.6.9.9,0,0,1-.19.15c-2.56,1.65-4.9,3-8.05,5.13-3.72,2.48-1.21.7-5.54,3.68-2.61,1.8-5.1-.87-4.08-1.77,4.69-4.06,2.92-4.36,3.67-7.51A2.73,2.73,0,0,1,323.12,408Z" style="fill:#263238"></path><path d="M321.87,409.75a3.32,3.32,0,0,1-2.34-.26.7.7,0,0,1-.1-.79,1,1,0,0,1,.51-.51c1.23-.53,4.12.61,4.25.66a.17.17,0,0,1,.11.18.18.18,0,0,1-.12.17A13.16,13.16,0,0,1,321.87,409.75Zm-1.43-1.31a1,1,0,0,0-.34.09.49.49,0,0,0-.32.31c-.11.24,0,.34,0,.4.42.45,2.36.18,3.76-.2A8.36,8.36,0,0,0,320.44,408.44Z" style="fill:#407BFF"></path><path d="M323.66,409.34a.11.11,0,0,1,0-.07c-.05-1,.6-3.43,1.46-3.68.19-.08.49,0,.76.38a1.34,1.34,0,0,1,.18,1c-.27,1.24-2,2.37-2.12,2.42a.19.19,0,0,1-.19,0A.17.17,0,0,1,323.66,409.34Zm1.94-3.11,0-.09c-.17-.29-.3-.24-.35-.24-.49.2-1.11,1.88-1.18,3a4.34,4.34,0,0,0,1.65-2,1,1,0,0,0-.08-.67Z" style="fill:#407BFF"></path><path d="M247.65,216a55.42,55.42,0,0,1,12.71-5.49l3.39,8.56s-12.06,4.62-14.15,4.47Z" style="fill:#407BFF"></path><g style="opacity:0.5"><path d="M247.65,216a55.42,55.42,0,0,1,12.71-5.49l3.39,8.56s-12.06,4.62-14.15,4.47Z"></path></g><path d="M254.53,406c-3.39-.68-8.15-3.39-9.3-6.66a9.94,9.94,0,0,1-.09-4.73,673.35,673.35,0,0,1,16.49-80.28,2.71,2.71,0,0,1,2.06,1.28,10.45,10.45,0,0,1,1,2.67l1.71,6.36S257.15,379.27,254.53,406Z" style="fill:#407BFF"></path><path d="M266.07,409.13c-3.46-.22-8.54-2.29-10.11-5.37a10,10,0,0,1-.71-4.68A673.31,673.31,0,0,1,261,317.33a2.72,2.72,0,0,1,2.21,1,10.68,10.68,0,0,1,1.34,2.52c.84,2,1.69,4.05,2.53,6.08C267.07,326.92,265.14,382.33,266.07,409.13Z" style="fill:#407BFF"></path><path d="M266.07,409.13c-3.46-.22-8.54-2.29-10.11-5.37a10,10,0,0,1-.71-4.68A673.31,673.31,0,0,1,261,317.33a2.72,2.72,0,0,1,2.21,1,10.68,10.68,0,0,1,1.34,2.52c.84,2,1.69,4.05,2.53,6.08C267.07,326.92,265.14,382.33,266.07,409.13Z" style="opacity:0.1"></path><path d="M277.84,410.24c-3.46.06-8.69-1.57-10.52-4.51a10,10,0,0,1-1.1-4.61,674.76,674.76,0,0,1-1.11-81.94,2.68,2.68,0,0,1,2.28.81,10.07,10.07,0,0,1,1.55,2.4l3,5.84S274.68,383.61,277.84,410.24Z" style="fill:#407BFF"></path><path d="M277.84,410.24c-3.46.06-8.69-1.57-10.52-4.51a10,10,0,0,1-1.1-4.61,674.76,674.76,0,0,1-1.11-81.94,2.68,2.68,0,0,1,2.28.81,10.07,10.07,0,0,1,1.55,2.4l3,5.84S274.68,383.61,277.84,410.24Z" style="opacity:0.2"></path><path d="M289,409.35c-3.44.35-8.79-.84-10.86-3.61a10,10,0,0,1-1.48-4.5,673.79,673.79,0,0,1-8-81.56,2.71,2.71,0,0,1,2.35.61,10.39,10.39,0,0,1,1.74,2.26l3.51,5.57S283.63,383.07,289,409.35Z" style="fill:#407BFF"></path><path d="M289,409.35c-3.44.35-8.79-.84-10.86-3.61a10,10,0,0,1-1.48-4.5,673.79,673.79,0,0,1-8-81.56,2.71,2.71,0,0,1,2.35.61,10.39,10.39,0,0,1,1.74,2.26l3.51,5.57S283.63,383.07,289,409.35Z" style="opacity:0.30000000000000004"></path><path d="M332.31,392.21c-6.7,2.14-9.59,7.23-15.4,11.18-9.46,6.43-24.48,5.05-30.19-.62-5.88-19.73-10.26-38.06-17.41-68.51-1.49-6.36-4.13-12.4-6-18.64-3.37,17.38-10.54,42.73-10.54,42.73s4.51-44.12,6.21-62.76c-.48-12.74,2.48-35.26,2.48-35.26,5.72-7.11,32.21-3.56,30.08-3.84C316,291.51,290.78,278.33,332.31,392.21Z" style="fill:#407BFF"></path><path d="M332.31,392.21c-6.7,2.14-9.59,7.23-15.4,11.18-9.46,6.43-24.48,5.05-30.19-.62-5.88-19.73-10.26-38.06-17.41-68.51-1.49-6.36-4.13-12.4-6-18.64-3.37,17.38-10.54,42.73-10.54,42.73s4.51-44.12,6.21-62.76c-.48-12.74,2.48-35.26,2.48-35.26,5.72-7.11,32.21-3.56,30.08-3.84C316,291.51,290.78,278.33,332.31,392.21Z" style="opacity:0.2"></path><path d="M261.62,260.43a24.71,24.71,0,0,0,4.58,1.3,38.31,38.31,0,0,0,19-1.07,55.6,55.6,0,0,0,7.25-2.7,41.59,41.59,0,0,0-4.64-7.39c.11-2.71.25-5,.36-7.69-7.32,2.6-17.1,1.72-24.65-.11C263.45,244.25,265,251,265,251A29.53,29.53,0,0,0,261.62,260.43Z" style="fill:#b25b52"></path><path d="M288.56,247.69l-24.08,2.13-6.31-38.68A89.9,89.9,0,0,1,274.54,208a81.79,81.79,0,0,1,17,.4Z" style="fill:#407BFF"></path><path d="M291.51,208.39l0,.26-.9,12-2,27.08-24.07,2.14-6.31-38.69A89.9,89.9,0,0,1,274.55,208a73.57,73.57,0,0,1,9.37-.22c2.23.08,4.13.24,5.48.38h0C290.74,208.28,291.51,208.39,291.51,208.39Z" style="opacity:0.4"></path><path d="M275.13,239.83c.92-.89,4.54-.17,5,1,.16.41-1.05,1-1.05,1.42s1.37,1.09,1.14,1.5c-.73,1.29-5.33.79-5.9-.58-.16-.37.58-1.08.68-1.47S274.79,240.16,275.13,239.83Z" style="fill:#407BFF"></path><path d="M275.13,239.83c.92-.89,4.54-.17,5,1,.16.41-1.05,1-1.05,1.42s1.37,1.09,1.14,1.5c-.73,1.29-5.33.79-5.9-.58-.16-.37.58-1.08.68-1.47S274.79,240.16,275.13,239.83Z" style="opacity:0.30000000000000004"></path><path d="M278.64,243.79s3.13-1.43,7,7a18.06,18.06,0,0,1-9.18-5.43Z" style="fill:#407BFF"></path><g style="opacity:0.30000000000000004"><path d="M278.64,243.79s3.13-1.43,7,7a18.06,18.06,0,0,1-9.18-5.43Z"></path></g><path d="M274.86,243s-6.06-.25-8,8c0,0,5.31-1.26,7.79-5.12Z" style="fill:#407BFF"></path><g style="opacity:0.30000000000000004"><path d="M274.86,243s-6.06-.25-8,8c0,0,5.31-1.26,7.79-5.12Z"></path></g><path d="M277.77,241.9c.76.91,0,3.95-1,4.64-.23.17-.84-.13-1.12-.11-.5,0-1.61.85-1.95.48-1-1,.5-4.81,1.8-5.39A2.72,2.72,0,0,1,277.77,241.9Z" style="fill:#407BFF"></path><path d="M277.77,241.9c.76.91,0,3.95-1,4.64-.23.17-.84-.13-1.12-.11-.5,0-1.61.85-1.95.48-1-1,.5-4.81,1.8-5.39A2.72,2.72,0,0,1,277.77,241.9Z" style="opacity:0.1"></path><path d="M286.61,236.12s-1.22,3.61-6.23,5.68C280.38,241.8,286.06,243.4,286.61,236.12Z" style="opacity:0.1"></path><path d="M273.92,241.17a24.77,24.77,0,0,1-5.31-2S269.35,242.26,273.92,241.17Z" style="opacity:0.1"></path><path d="M272.06,243.26a24.54,24.54,0,0,1-5.66-.38S268,245.61,272.06,243.26Z" style="opacity:0.1"></path><path d="M296.67,213.21a1.42,1.42,0,0,1,1.49-.7c2.17.4,4.58.82,6.7,1.2a1.35,1.35,0,0,0,.77-.07c5.91-2.37,12.58-4.89,18.51-7.27a1.39,1.39,0,0,0,.83-.92c.18-.63.41-1.3.58-1.93a1.45,1.45,0,0,1,.73-.88,21,21,0,0,1,5.24-2.13,1.34,1.34,0,0,1,1,.24,9.37,9.37,0,0,1,2.23,2.12,1.46,1.46,0,0,1-.31,2,17.38,17.38,0,0,1-7.27,3.05,1.35,1.35,0,0,0-.76.31c-4.55,3.75-10.42,8.42-16.27,11a14.35,14.35,0,0,1-9.07.84l-5.9-1.38Z" style="fill:#b25b52"></path><path d="M305,214.24l-.77,5.69a1.54,1.54,0,0,1-.19.57,1.56,1.56,0,0,1-1.44.8c-3.09-.11-9.75,0-10.77-.25a10.58,10.58,0,0,1-7.74-9.56l-.2-3.72c2.23.08,4.13.24,5.48.38h0l2.07.5a87.15,87.15,0,0,1,12.62,3.93,1.56,1.56,0,0,1,.89,1.15A1.23,1.23,0,0,1,305,214.24Z" style="fill:#407BFF"></path><g style="opacity:0.4"><path d="M305,214.24l-.77,5.69a1.54,1.54,0,0,1-.19.57,1.56,1.56,0,0,1-1.44.8c-3.09-.11-9.75,0-10.77-.25a10.58,10.58,0,0,1-7.74-9.56l-.2-3.72c2.23.08,4.13.24,5.48.38h0l2.07.5a87.15,87.15,0,0,1,12.62,3.93,1.56,1.56,0,0,1,.89,1.15A1.23,1.23,0,0,1,305,214.24Z"></path></g><path d="M268.26,209.79c3.76-1.41,3.18-9.57,3-10.19l3.46-2.84,3.19-3.4c-.44,4.41-.56,12.38,2.71,14.86,0,0,0,3.12-6.43,4.17S268.26,209.79,268.26,209.79Z" style="fill:#b25b52"></path><path d="M271.22,199.6l3.46-2.84,3.19-3.4a42.24,42.24,0,0,0-.1,7.46c-1.14,1.58-3.38,4-6.65,4.32A17.69,17.69,0,0,0,271.22,199.6Z" style="opacity:0.2"></path><path d="M280.68,187.44c-.43,6.41-.34,10.18-3.59,13.55a8.34,8.34,0,0,1-14.24-4c-1.35-5.7-.43-15.23,5.84-18a8.44,8.44,0,0,1,12,8.36Z" style="fill:#b25b52"></path><path d="M271,189.53c0,.52-.28.94-.62.93s-.62-.41-.62-.93.28-.95.63-.92S271,189,271,189.53Z" style="fill:#263238"></path><path d="M265.1,189.71c0,.51-.28.94-.63.92s-.61-.4-.61-.93.28-.94.63-.92S265.1,189.18,265.1,189.71Z" style="fill:#263238"></path><path d="M270.23,189.18a1.08,1.08,0,0,1-.7-1,1,1,0,0,0,.52.34.76.76,0,0,1,.48.39c.07.2-.11.48-.31.4" style="fill:#263238"></path><path d="M264.46,189.3a1.2,1.2,0,0,1-.77-1.14,1.13,1.13,0,0,0,.57.38.81.81,0,0,1,.53.42c.08.22-.12.52-.34.44Z" style="fill:#263238"></path><path d="M266.65,189.84c-1,2.08-1.2,2.32-2.54,3.37a3.72,3.72,0,0,0,2,1.12Z" style="fill:#9d2724"></path><path d="M272.81,187.57a.22.22,0,0,0,.14,0,.3.3,0,0,0,.07-.42h0a2.93,2.93,0,0,0-2.49-1.24.3.3,0,0,0-.28.32h0a.31.31,0,0,0,.33.28h0a2.35,2.35,0,0,1,1.94.95A.28.28,0,0,0,272.81,187.57Z" style="fill:#263238"></path><path d="M262.58,187.75a.27.27,0,0,0,.23-.17,2.58,2.58,0,0,1,1.74-1.44.3.3,0,0,0,.19-.39.31.31,0,0,0-.29-.21h0a3.18,3.18,0,0,0-2.18,1.78.3.3,0,0,0,.14.4h0A.25.25,0,0,0,262.58,187.75Z" style="fill:#263238"></path><path d="M283.09,192.78a5.75,5.75,0,0,1-2.6,3.25c-1.64.92-2.81-.47-2.64-2.27.15-1.62,1.19-4,3-4.22S283.6,191.08,283.09,192.78Z" style="fill:#b25b52"></path><path d="M278.21,202.08c.47-2.49-.12-4-1-5.07a25.36,25.36,0,0,1-2.67-3.53c-.54-.93.14-2.56-.34-3.53a15.17,15.17,0,0,0-2.6-3.34,8.87,8.87,0,0,1-2.26-3.56,3.5,3.5,0,0,1,1.19-3.81c2.86-1.85,7.18-1.73,9.39.87a10.18,10.18,0,0,1,1.72,8.54c-.63,2.27-3.31,2-3,4.37s1.08,1.79,2.24,4.69c1.51,3.74-4,9.16-5.28,8.84A9.55,9.55,0,0,0,278.21,202.08Z" style="fill:#263238"></path><path d="M264.14,185c1.21-.56,2.55-.82,3.73-1.45a3.57,3.57,0,0,0,2.1-3.15,5.9,5.9,0,0,1,4.92-2.87,14.36,14.36,0,0,0-9.29.69,14.58,14.58,0,0,0-6.73,6.55c-.54,1.08-.91,2.48-.15,3.42-1,1.82-2,4.19-1.49,6.19.34,1.38,1.35,2.53,1.71,3.91a12.49,12.49,0,0,1,0,4.18,5.65,5.65,0,0,0,0,2.8,3,3,0,0,0,2.4,2.27,2.33,2.33,0,0,1-.9-2.56,7.87,7.87,0,0,1,1.4-2.55,5.58,5.58,0,0,0,1.2-2.64c.19-2.26-2.16-4.15-2-6.42a13.82,13.82,0,0,1,.93-2.88C262.25,189.48,262.93,185.5,264.14,185Z" style="fill:#263238"></path><path d="M267.87,197a5.4,5.4,0,0,1-1,.15.17.17,0,0,1-.18-.15h0a.16.16,0,0,1,.15-.18,4.7,4.7,0,0,0,3.69-2.08.18.18,0,0,1,.23-.07.19.19,0,0,1,.08.24A4.87,4.87,0,0,1,267.87,197Z" style="fill:#263238"></path></g><g id="freepik--character-1--inject-112"><path d="M234.26,181.86a3.52,3.52,0,0,1,3,5.08,4.91,4.91,0,0,1,.07,5.3,4.44,4.44,0,0,1-4.63,2,7.18,7.18,0,0,1-2.78,2.69,4.07,4.07,0,0,1-3.69,0,2.93,2.93,0,0,1-1.41-3.26C226.3,188.81,231.07,185.77,234.26,181.86Z" style="fill:#263238"></path><polygon points="174.27 406.5 180.01 407.74 184 397.52 177.3 394.54 174.27 406.5" style="fill:#ffb573"></polygon><polygon points="175.68 400.94 177.18 395.03 180.27 395.86 184 397.52 182.09 402.42 175.68 400.94" style="opacity:0.1"></polygon><path d="M170.11,405.82c-.84-.22-1.67-.61-1.85-1a.63.63,0,0,1,.19-.7.87.87,0,0,1,.61-.24c1.22,0,3.22,2,3.31,2.05a.17.17,0,0,1,0,.19.18.18,0,0,1-.16.1A12.81,12.81,0,0,1,170.11,405.82Zm-.72-1.6a1.19,1.19,0,0,0-.32-.05.49.49,0,0,0-.38.14c-.17.17-.15.28-.12.35.2.52,1.9,1,3.21,1.17A7.57,7.57,0,0,0,169.39,404.22Z" style="fill:#407BFF"></path><path d="M172.22,406.17l-.07,0c-.72-.58-2-2.48-1.61-3.21.07-.18.26-.36.72-.29a1.24,1.24,0,0,1,.82.51,4.78,4.78,0,0,1,.36,2.91.17.17,0,0,1-.11.12A.14.14,0,0,1,172.22,406.17Zm-.93-3.19-.09,0c-.3-.05-.35.06-.37.1-.17.45.6,1.88,1.31,2.6a4,4,0,0,0-.35-2.32.94.94,0,0,0-.5-.35Z" style="fill:#407BFF"></path><path d="M173.18,405.41l7.41,2a.61.61,0,0,1,.46.62l-.26,6.38a1,1,0,0,1-1.06,1,.78.78,0,0,1-.22,0c-2.65-.76-5-1.53-8.31-2.41-3.92-1-3-.31-7.68-1.46-2.79-.71-2.46-4-1.24-3.84,5.57.75,6.56-.73,9.15-2.11A2.46,2.46,0,0,1,173.18,405.41Z" style="fill:#407BFF"></path><polygon points="215.9 413.46 221.78 413.46 223.51 402.63 216.33 401.14 215.9 413.46" style="fill:#ffb573"></polygon><polygon points="216.33 401.14 223.51 402.63 222.7 407.67 216.11 407.37 216.33 401.14" style="opacity:0.1"></polygon><path d="M211.75,413.46a3,3,0,0,1-2.06-.52.62.62,0,0,1,0-.72.82.82,0,0,1,.52-.39c1.17-.33,3.62,1.05,3.73,1.11a.18.18,0,0,1,.08.18.16.16,0,0,1-.13.13A11.11,11.11,0,0,1,211.75,413.46Zm-1.12-1.35a.88.88,0,0,0-.32,0,.43.43,0,0,0-.32.23c-.13.21-.08.31,0,.37.32.45,2.09.45,3.4.28A7.55,7.55,0,0,0,210.63,412.11Z" style="fill:#407BFF"></path><path d="M213.87,413.25h-.07c-.84-.37-2.53-1.88-2.39-2.67,0-.19.16-.43.62-.48a1.27,1.27,0,0,1,.92.28,4.76,4.76,0,0,1,1.11,2.71.15.15,0,0,1-.07.15A.17.17,0,0,1,213.87,413.25Zm-1.73-2.83h-.09c-.3,0-.32.15-.33.19,0,.48,1.07,1.66,1.94,2.17a4,4,0,0,0-.94-2.15.93.93,0,0,0-.58-.2Z" style="fill:#407BFF"></path><path d="M214.61,412.27l7.66,0a.61.61,0,0,1,.6.48l1.42,6.23a1,1,0,0,1-.76,1.23l-.21,0c-2.77,0-5.22-.17-8.66-.15-4.06,0-3,.5-7.79.6-2.88.05-3.42-3.21-2.2-3.38,5.57-.73,6.14-2.42,8.28-4.43A2.49,2.49,0,0,1,214.61,412.27Z" style="fill:#407BFF"></path><path d="M163.19,182.24l.67,3,4.41,1.71.73,2.2,18.32,15.73c6.82-.39,17.72-1.2,17.72-1.2,4.23,4.81,2.1,7.06,2.1,7.06s-17.22,2.27-23.09.68C179,210,165.82,191,165.82,191l-4-2.13a2.32,2.32,0,0,1-1.14-1.34l-.58-1.74a2.36,2.36,0,0,1,.21-2l1.1-1.84A1,1,0,0,1,163.19,182.24Z" style="fill:#ffb573"></path><path d="M206.27,202.56l-11.9,1,1.48,8.92,14,.63A10,10,0,0,0,206.27,202.56Z" style="fill:#407BFF"></path><path d="M206.27,202.56l-11.9,1,1.48,8.92,14,.63A10,10,0,0,0,206.27,202.56Z" style="fill:#fff;opacity:0.7000000000000001"></path><path d="M206.27,210.69a8.24,8.24,0,0,1-.62,1.81l-8.12-.07c4.65-1.14,8.74-6.13,8.74-6.13Z" style="opacity:0.2;isolation:isolate"></path><path d="M164.4,190.14l3.45,1.53a1.07,1.07,0,0,0,1.51-1V176.9a1.07,1.07,0,0,0-.64-1l-3.45-1.53a1.07,1.07,0,0,0-1.5,1v13.8A1.08,1.08,0,0,0,164.4,190.14Z" style="fill:#263238"></path><path d="M231.56,258.89c-1.49-13.92-1.2-18.69.9-28.13l6.73-22.61a2.88,2.88,0,0,0-2.63-3.36s-12.4-2-16.57-2.32c-4.63-.37-13.72.09-13.72.09l-4,10.42a25.64,25.64,0,0,0-1.87,11.12l2.54,11.06-1.82,24h23.22Z" style="fill:#407BFF"></path><path d="M231.56,258.89c-1.49-13.92-1.2-18.69.9-28.13l6.73-22.61a2.88,2.88,0,0,0-2.63-3.36s-12.4-2-16.57-2.32c-4.63-.37-13.72.09-13.72.09l-4,10.42a25.64,25.64,0,0,0-1.87,11.12l2.54,11.06-1.82,24h23.22Z" style="fill:#fff;opacity:0.7000000000000001"></path><path d="M233.72,226.52a63.89,63.89,0,0,1,2.41-8.14c1.07-2.76,0-6.08-1-8.88a3.81,3.81,0,0,0-.81-1.46C233.92,207.65,231.34,214,233.72,226.52Z" style="opacity:0.2;isolation:isolate"></path><path d="M209.82,202.53c-1.21,2.09-2.37,4.47-1.84,6.83a6.6,6.6,0,0,0,3.51,4.24,13,13,0,0,0,5.49,1.26,19.29,19.29,0,0,0,10.17-2.13c3.07-1.7,6.19-8.41,6.19-8.53A98.55,98.55,0,0,0,209.82,202.53Z" style="fill:#ffb573"></path><path d="M213.86,202.66c4.48-.76,5.32-4.47,5-7.87l9.51-6c-1.33,3.81-3.07,10.48-1.64,14.35,0,0,.05,3.69-8.15,3.69S213.86,202.66,213.86,202.66Z" style="fill:#ffb573"></path><path d="M218.83,194.79l6.32-4a3.34,3.34,0,0,1-.26,2.85,7.7,7.7,0,0,1-6,3.55A11.52,11.52,0,0,0,218.83,194.79Z" style="opacity:0.2;isolation:isolate"></path><path d="M232.08,180.92c-1.82,6.52-2.57,10.43-6.63,13.09-6.12,4-13.62-.78-13.76-7.7-.14-6.26,2.88-15.84,9.91-17.07a9.22,9.22,0,0,1,10.71,7.44A9.08,9.08,0,0,1,232.08,180.92Z" style="fill:#ffb573"></path><path d="M214.44,187a36.58,36.58,0,0,1,7-.36c-.61,1.55-1.75,2.8-4.4,2.77a2.4,2.4,0,0,1-2.61-2.19A1.55,1.55,0,0,1,214.44,187Z" style="fill:#263238"></path><path d="M218.29,188.15a4.82,4.82,0,0,0-2.89.74,2.81,2.81,0,0,0,1.65.47,4.8,4.8,0,0,0,2.88-.73A2.74,2.74,0,0,0,218.29,188.15Z" style="fill:#a02724"></path><path d="M214.68,186.93a1.08,1.08,0,0,0,.8.78,27,27,0,0,0,4.58-.36,1.49,1.49,0,0,0,1.17-.76A43.44,43.44,0,0,0,214.68,186.93Z" style="fill:#fff"></path><path d="M221.34,180.6c-.12.54-.49.92-.85.84s-.54-.57-.42-1.11.49-.91.85-.83S221.46,180.07,221.34,180.6Z" style="fill:#263238"></path><path d="M215.27,179.29c-.12.54-.5.91-.85.83s-.54-.57-.42-1.1.49-.92.84-.84S215.38,178.75,215.27,179.29Z" style="fill:#263238"></path><path d="M216.7,179.74a19.38,19.38,0,0,1-3.57,4,3.19,3.19,0,0,0,2.47,1Z" style="fill:#ed893e"></path><path d="M224,178.53h.17a.34.34,0,0,0,.15-.43,3.21,3.21,0,0,0-2.28-1.85.31.31,0,0,0-.37.27.32.32,0,0,0,.27.37h0a2.58,2.58,0,0,1,1.8,1.49A.3.3,0,0,0,224,178.53Z" style="fill:#263238"></path><path d="M213.43,176.33a.35.35,0,0,0,.29-.12,2.55,2.55,0,0,1,2.06-1.05.31.31,0,0,0,.35-.29.32.32,0,0,0-.29-.35,3.26,3.26,0,0,0-2.66,1.29.32.32,0,0,0,0,.45h0A.26.26,0,0,0,213.43,176.33Z" style="fill:#263238"></path><path d="M214.92,178.24l-1.29-.66S214.12,178.78,214.92,178.24Z" style="fill:#263238"></path><path d="M221.11,179.61l-1.29-.65S220.31,180.15,221.11,179.61Z" style="fill:#263238"></path><path d="M219.88,171c4.44,1.12,7.6,3.54,6.61,10.11a5.14,5.14,0,0,1,1.2,5,43.25,43.25,0,0,1,5.7,1.63c.54-3.07,2.16-5.15,1.54-8.21s-2-7-4.73-8.53S222.52,169.46,219.88,171Z" style="fill:#263238"></path><path d="M234,187.78a6.5,6.5,0,0,1-4.51,1.93c-2.26,0-2.79-2.16-1.67-4,1-1.63,3.41-3.6,5.43-2.74A2.88,2.88,0,0,1,234,187.78Z" style="fill:#ffb573"></path><path d="M201.1,252.1,175.4,395.36l9.24,3.17c7-18.6,12.51-35.34,16.87-50.22,2.08-7.06,2.91-13.7,4.49-19.92,1.88-7.39,4.42-14.2,5.72-20.41,6.77-32.53,6.22-48.83,6.22-48.83v-7Z" style="fill:#263238"></path><path d="M215.25,276.27l.6,8.22c-.92,6.56-2.24,14.39-4.13,23.49-.62,2.95-1.52,6-2.49,9.27-1.15-20.83,3.62-46.15,3.62-46.15Z" style="opacity:0.30000000000000004"></path><path d="M211.17,254.27l3.92,148.66,9.62.74c2.68-17,4.65-32.41,6.06-46.29.92-9.07.63-17.49,1.13-25.26.93-14.38,1.34-26.6,2.12-36.62,1.72-21.88,0-28.3-2.46-36.61-.48-1.63,0-6.79,0-6.79H211.17Z" style="fill:#263238"></path><path d="M247.56,226.52s-3.2-8.49-5.4-14.05c-3.35-1-6.63-.4-8.4,2.6,0,0,5,9.9,7.64,14.44,1.32,2.28,19.41,14.07,21.84,15.06l3.82-2.38Z" style="fill:#ffb573"></path><path d="M232.9,209.87A39.16,39.16,0,0,0,236,222.73a12.7,12.7,0,0,1,10-4.34,38.46,38.46,0,0,0-2.47-7.27,12.38,12.38,0,0,0-2.79-4.3,5.47,5.47,0,0,0-4.74-1.5C234.31,205.69,232.78,208.15,232.9,209.87Z" style="fill:#407BFF"></path><path d="M232.9,209.87A39.16,39.16,0,0,0,236,222.73a12.7,12.7,0,0,1,10-4.34,38.46,38.46,0,0,0-2.47-7.27,12.38,12.38,0,0,0-2.79-4.3,5.47,5.47,0,0,0-4.74-1.5C234.31,205.69,232.78,208.15,232.9,209.87Z" style="fill:#fff;opacity:0.1"></path><path d="M232.9,209.87A39.16,39.16,0,0,0,236,222.73a12.7,12.7,0,0,1,10-4.34,38.46,38.46,0,0,0-2.47-7.27,12.38,12.38,0,0,0-2.79-4.3,5.47,5.47,0,0,0-4.74-1.5C234.31,205.69,232.78,208.15,232.9,209.87Z" style="fill:#fff;opacity:0.7000000000000001"></path><path d="M263.07,244.38s3.17,3,5.52,3.28a37.69,37.69,0,0,0,7.16-.54c.93-.48,1.4-2.22,1.4-2.22s.36-.85.36-.86c-.1-.92-.13-.71-1-1.08-1.64-.72-3.21-1.88-4.92-2.17C265.29,239.72,263.81,239.92,263.07,244.38Z" style="fill:#ffb573"></path><path d="M221.11,169.81a8.58,8.58,0,0,1,6.15.5c.48-.14,1.45.5,1.45.5a9.6,9.6,0,0,0-5.73-2.37,9.5,9.5,0,0,0-5.86,1.88,4.32,4.32,0,0,0-1.28,1.38c-.3.55-.78,1.2-.54,1.79A16.82,16.82,0,0,1,221.11,169.81Z" style="fill:#263238"></path><path d="M229.21,190.11a1.18,1.18,0,0,0,1.5.94,1.46,1.46,0,0,0,.75-1.42,1.77,1.77,0,0,0-.37-1.16,1,1,0,0,0-1.11-.34A1.8,1.8,0,0,0,229.21,190.11Z" style="fill:#407BFF"></path></g></svg>