<svg xmlns="http://www.w3.org/2000/svg" data-name="Camada 1" viewBox="0 0 100 100"><path d="M94.25 47.12H91V14.67a14.67 14.67 0 1 0-29.33 0v4.1h-7.59v6h21.17v-6h-7.58v-4.1a8.67 8.67 0 1 1 17.33 0v19h-6.62v6H85v7.53a120.35 120.35 0 0 1-18-.88c-6.38-.91-13.45-2.83-20.92-4.86-11.12-3-22.62-6.13-32.89-6.13H0v39a18.32 18.32 0 0 0 .46 4.12A18.5 18.5 0 0 0 17.1 92.89V100h6v-7h53.8v7h6v-7.12A18.66 18.66 0 0 0 100 74.31V47.12ZM94 74.31A12.66 12.66 0 0 1 81.35 87h-62.7a12.73 12.73 0 0 1-12.34-9.89 12.45 12.45 0 0 1-.31-2.8v-33h7.22c9.47 0 20.58 3 31.32 5.93 7.66 2.07 14.89 4 21.64 5 7.49 1.07 15 1 22.24.91l5.58-.03Z"/></svg>