<svg xmlns="http://www.w3.org/2000/svg" enable-background="new 0 0 64 64" viewBox="0 0 64 64"><path d="M58,42C58,42,58,42,58,42l0-4.9c0-2.2-1.3-3.9-3-4.1V16c0-1.7-1.3-3-3-3H12c-1.7,0-3,1.3-3,3v17
		c-1.7,0.2-3,1.9-3,4.1V42c0,0,0,0,0,0c-0.6,0.6-1,1.5-1,2.4v1.1c0,1.7,1.3,3.2,3,3.4v1c0,0.6,0.4,1,1,1h2c0.6,0,1-0.4,1-1v-1h40v1
		c0,0.6,0.4,1,1,1h2c0.6,0,1-0.4,1-1v-1c1.7-0.2,3-1.7,3-3.4v-1.1C59,43.5,58.6,42.6,58,42z M11,16c0-0.6,0.4-1,1-1h40
		c0.6,0,1,0.4,1,1v17h-2v-4.3c0-2.1-1.7-3.7-3.7-3.7h-8.5c-2.1,0-3.7,1.7-3.7,3.7V33h-6v-4.3c0-2.1-1.7-3.7-3.7-3.7h-8.5
		c-2.1,0-3.7,1.7-3.7,3.7V33h-2V16z M49,33H37v-4.3c0-1,0.8-1.7,1.7-1.7h8.5c1,0,1.7,0.8,1.7,1.7V33z M27,33H15v-4.3
		c0-1,0.8-1.7,1.7-1.7h8.5c1,0,1.7,0.8,1.7,1.7V33z M9.4,35H10h4h14h8h14h4h0.6c0.6,0,1.4,0.9,1.4,2.1V41c-0.1,0-0.3,0-0.4,0H8.4
		c-0.2,0-0.3,0-0.4,0v-3.9C8,35.9,8.7,35,9.4,35z M57,45.6c0,0.8-0.7,1.4-1.4,1.4H8.4C7.7,47,7,46.3,7,45.6v-1.1
		C7,43.7,7.7,43,8.4,43h47.1c0.8,0,1.4,0.7,1.4,1.4V45.6z"/></svg>
