<svg xmlns="http://www.w3.org/2000/svg" viewBox="0 0 24 24" fill="none"><path  fill-rule="evenodd" d="M4 4.5A1.5 1.5 0 0 0 2.5 6v14A1.5 1.5 0 0 0 4 21.5h14a1.5 1.5 0 0 0 1.5-1.5V9.5h1V20a2.5 2.5 0 0 1-2.5 2.5H4A2.5 2.5 0 0 1 1.5 20V6A2.5 2.5 0 0 1 4 3.5h10.5v1H4Z" clip-rule="evenodd"/><path  fill-rule="evenodd" d="M19.646 1.646a.5.5 0 0 1 .708 0l2 2a.5.5 0 0 1 0 .708l-8 8a.5.5 0 0 1-.196.12l-3 1a.5.5 0 0 1-.632-.632l1-3a.5.5 0 0 1 .12-.196l8-8Zm-7.209 8.624-.646 1.94 1.939-.647L21.293 4 20 2.707l-7.563 7.563Z" clip-rule="evenodd"/></svg>
