<svg xmlns="http://www.w3.org/2000/svg" xmlns:svgjs="http://svgjs.com/svgjs" xmlns:xlink="http://www.w3.org/1999/xlink" width="288" height="288"><svg xmlns="http://www.w3.org/2000/svg"  viewBox="0 0 33.867 33.867"><path fill="#cfd5d8" d="M 6.3499996,30.188411 H 27.516668 c 1.465792,0 2.645833,-1.180042 2.645833,-2.645833 V 11.698774 c 0,-7.515196 -26.4583354,-8.1322082 -26.4583354,0 v 15.843804 c 0,1.465791 1.180042,2.645833 2.645834,2.645833 z" class="colora8d0ff svgShape" paint-order="fill markers stroke"/><path d="M 15.603182,1.4208173 2.3807332,9.0539433 C 1.1158963,9.7845493 0.68240798,11.401919 1.4123169,12.667159 2.1428034,13.933424 2.703431,14.367322 3.9692667,13.636092 L 15.759418,7.4406103 c 0.839064,-0.4844343 1.637946,-0.4104505 2.380055,0.018008 l 11.758959,6.1774747 c 1.265375,0.729822 1.824453,0.296092 2.554883,-0.968933 0.730171,-1.264833 0.29741,-2.8820777 -0.966864,-3.6132157 L 18.255733,1.4156496 C 18.091703,1.3290522 17.595265,1.0684205 16.933335,1.0616657 16.33523,1.0555623 15.7481,1.3449773 15.603182,1.4208173 Z" style="line-height:normal;font-variant-ligatures:normal;font-variant-position:normal;font-variant-caps:normal;font-variant-numeric:normal;font-variant-alternates:normal;font-variant-east-asian:normal;font-feature-settings:normal;font-variation-settings:normal;text-indent:0;text-align:start;text-decoration-line:none;text-decoration-style:solid;text-decoration-color:#000;text-transform:none;text-orientation:mixed;white-space:normal;shape-padding:0;shape-margin:0;inline-size:0;isolation:auto;mix-blend-mode:normal;solid-color:#000;solid-opacity:1" fill="#73848c" class="color06f svgShape" color="#000" enable-background="accumulate" font-family="sans-serif" font-weight="400" overflow="visible" paint-order="fill markers stroke"/><path fill="#dbdbdb" d="m 11.201157,14.833219 c -2.4875503,0 -4.4902983,2.002748 -4.4902983,4.490299 V 30.165833 H 15.691456 V 19.323518 c 0,-2.487551 -2.002748,-4.490299 -4.490299,-4.490299 z" class="colorfff svgShape" paint-order="fill markers stroke"/><path fill="#73848c" d="M2.3812491 28.045834H31.485418c.732896 0 1.322916.59002 1.322916 1.322916v2.116669c0 .732896-.59002 1.322917-1.322916 1.322917H2.3812491c-.7328958 0-1.3229167-.590021-1.3229167-1.322917V29.36875c0-.732896.5900209-1.322916 1.3229167-1.322916zM19.479947 16.238801h6.58151c.732896 0 1.322917.590021 1.322917 1.322917v5.357813c0 .732896-.590021 1.322916-1.322917 1.322916h-6.58151c-.732896 0-1.322917-.59002-1.322917-1.322916v-5.357813c0-.732896.590021-1.322917 1.322917-1.322917z" class="color00a1ff svgShape" paint-order="fill markers stroke"/></svg></svg>
