<svg xmlns="http://www.w3.org/2000/svg" viewBox="4.1 -0.01 55.8 64.01"><path fill="#778eeb" d="m4.98 5.83 12.13 5.42c.24.11.44.3.55.54l9.18 20.3a1.091 1.091 0 0 1-.99 1.54c-.41 0-.81-.24-.99-.64l-9.01-19.92L4.1 7.81l.88-1.98z"/><path fill="#4d4d50" d="m33.712 31.69 8.42-20.877 1.724.696-8.419 20.876z"/><path fill="#dfb452" d="M56.27 22.78c3.29-8.16-.71-18.17-9.25-21.61-8.53-3.44-18.36.99-21.65 9.15 1.1-2.72 4.29-3.99 7.13-2.85 2.84 1.15 4.26 4.28 3.16 7 1.1-2.72 4.29-3.99 7.13-2.85 2.84 1.15 4.26 4.28 3.16 7 1.1-2.72 4.29-3.99 7.13-2.85 2.87 1.16 4.28 4.29 3.19 7.01z"/><path fill="#a0451f" d="M57.98 33.48c4.92 10.88.08 23.68-10.8 28.6-10.88 4.92-23.68.08-28.6-10.79a21.54 21.54 0 0 1-.16-17.44l26.57-12.01a21.513 21.513 0 0 1 12.99 11.64z"/><path fill="#e2e2e2" d="m40.85 23.7-18.28 8.26-.36-.8c-.14-.31 0-.67.3-.8l17.18-7.76c.31-.14.67 0 .8.3l.36.8z"/><path fill="#8f3f21" d="M53.06 51.98c-.35.26-.84.18-1.1-.17l-5.64-7.69a.785.785 0 0 1 .17-1.1c.35-.26.84-.18 1.1.17l5.64 7.69c.26.35.18.84-.17 1.1zm-5.92 3c-.35.26-.84.18-1.1-.17l-5.64-7.69a.785.785 0 0 1 .17-1.1c.35-.26.84-.18 1.1.17l5.64 7.68c.25.36.18.85-.17 1.11zm-16.92-6.37c-.35.26-.84.18-1.1-.17l-5.64-7.69a.785.785 0 0 1 .17-1.1c.35-.26.84-.18 1.1.17l5.64 7.69c.25.35.17.84-.17 1.1zm5.39-2.9c-.35.26-.84.18-1.1-.17l-5.64-7.68a.785.785 0 0 1 .17-1.1c.35-.26.84-.18 1.1.17l5.64 7.69c.25.34.18.83-.17 1.09zm9.56-4.23c-.35.26-.84.18-1.1-.17l-5.64-7.68a.785.785 0 0 1 .17-1.1c.35-.26.84-.18 1.1.17l5.64 7.69c.26.35.18.84-.17 1.09zM40.24 59.6c-.35.26-.84.18-1.1-.17l-5.64-7.68a.785.785 0 0 1 .17-1.1c.35-.26.84-.18 1.1.17l5.64 7.69c.26.35.18.84-.17 1.09zm16.43-16.88c-.35.26-.84.18-1.1-.17l-5.64-7.69c-.26-.35-.18-.84.17-1.1s.84-.18 1.1.17l5.64 7.69c.25.36.18.85-.17 1.1z"/></svg>
