<svg xmlns="http://www.w3.org/2000/svg" width="24" height="24" fill-rule="evenodd" stroke-linejoin="round"  viewBox="0 0 24 24" stroke-miterlimit="2" clip-rule="evenodd"><path d="M385,42L385,22C385,21.448 385.448,21 386,21L398,21C398.552,21 399,21.448 399,22L399,42C399,42 400.5,42 400.5,42C400.633,42 400.76,42.053 400.854,42.146C400.947,42.24 401,42.367 401,42.5C401,42.633 400.947,42.76 400.854,42.854C400.76,42.947 400.633,43 400.5,43L383.5,43C383.367,43 383.24,42.947 383.146,42.854C383.053,42.76 383,42.633 383,42.5C383,42.367 383.053,42.24 383.146,42.146C383.24,42.053 383.367,42 383.5,42L385,42ZM398,22L386,22L386,42L398,42L398,22ZM389.914,33C389.708,33.582 389.153,34 388.5,34C387.672,34 387,33.328 387,32.5C387,31.672 387.672,31 388.5,31C389.153,31 389.709,31.418 389.915,32L391.5,32C391.633,32 391.76,32.053 391.854,32.147C391.947,32.24 392,32.368 392,32.5C392,32.633 391.947,32.76 391.854,32.854C391.76,32.948 391.633,33 391.5,33L389.914,33ZM388.5,32C388.776,32 389,32.224 389,32.5C389,32.776 388.776,33 388.5,33C388.224,33 388,32.776 388,32.5C388,32.224 388.224,32 388.5,32Z" transform="translate(-380 -20)"/></svg>
