<svg xmlns="http://www.w3.org/2000/svg" width="48" height="48"><path fill-rule="evenodd" d="M34 47H14a5 5 0 0 1-5-5V24a5 5 0 0 1 5-5h4a1 1 0 1 1 0 2h-4c-1.656 0-3 1.344-3 3v18a3 3 0 0 0 3 3h20a3 3 0 0 0 3-3V24a3 3 0 0 0-3-3h-4a1 1 0 1 1 0-2h4a5 5 0 0 1 5 5v18a5 5 0 0 1-5 5zm-2.666-36.285L25 4.381V30a1 1 0 1 1-2 0V4.381l-6.334 6.334a.977.977 0 0 1-1.381-1.381l7.905-7.905c.032-.047.053-.101.095-.144a.973.973 0 0 1 .705-.283L24 1l.01.002a.973.973 0 0 1 .705.283c.041.042.06.094.091.14l7.909 7.909a.977.977 0 0 1-1.381 1.381z" clip-rule="evenodd"/></svg>